<?xml version="1.0" encoding="UTF-8"?>
<svg version="1.1" xmlns="http://www.w3.org/2000/svg" width="389" height="318">
<path d="M0 0 C1.27423828 -0.00193359 1.27423828 -0.00193359 2.57421875 -0.00390625 C3.46753906 -0.00003906 4.36085938 0.00382812 5.28125 0.0078125 C6.62123047 0.00201172 6.62123047 0.00201172 7.98828125 -0.00390625 C8.83777344 -0.00261719 9.68726563 -0.00132813 10.5625 0 C11.34689453 0.00112793 12.13128906 0.00225586 12.93945312 0.00341797 C14.78125 0.1328125 14.78125 0.1328125 15.78125 1.1328125 C15.90641637 3.87086454 15.96732673 6.58492969 15.98657227 9.32446289 C15.99647186 10.18292313 16.00637146 11.04138336 16.01657104 11.92585754 C16.04828309 14.77736609 16.07298164 17.62889132 16.09765625 20.48046875 C16.11821741 22.45202581 16.13921365 24.42357838 16.16062927 26.39512634 C16.21593653 31.59502535 16.2653075 36.7949647 16.31347656 41.99493408 C16.36362857 47.29678964 16.41934744 52.5985863 16.47460938 57.90039062 C16.58229673 68.31114765 16.68371805 78.72195573 16.78125 89.1328125 C17.87050781 89.58914062 18.95976562 90.04546875 20.08203125 90.515625 C25.83318948 92.92498596 30.22192398 95.93072062 33.78125 101.1328125 C33.78125 101.7928125 33.78125 102.4528125 33.78125 103.1328125 C34.44125 103.1328125 35.10125 103.1328125 35.78125 103.1328125 C35.90902832 103.7626001 36.03680664 104.3923877 36.16845703 105.04125977 C37.97187584 111.31897598 40.40716316 114.04025728 46.0859375 117.28515625 C48.58466285 118.60061526 51.11483116 119.83990245 53.65625 121.0703125 C54.93765999 121.71912563 56.21762526 122.37080038 57.49609375 123.02539062 C60.90758598 124.76293266 64.3418779 126.45105489 67.78125 128.1328125 C69.78216583 129.13097874 71.78245759 130.13040096 73.78125 131.1328125 C74.01457031 130.46894531 74.24789063 129.80507812 74.48828125 129.12109375 C76.146921 125.28768165 78.26687015 121.86289604 80.46875 118.3203125 C80.94207764 117.55203125 81.41540527 116.78375 81.90307617 115.9921875 C86.72431313 108.18321774 91.59654394 100.40542125 96.47729492 92.63354492 C97.37992065 91.19458862 97.37992065 91.19458862 98.30078125 89.7265625 C98.88553223 88.7984375 99.4702832 87.8703125 100.07275391 86.9140625 C101.22446669 85.03919654 102.34092528 83.14227214 103.42333984 81.2265625 C103.93719238 80.3190625 104.45104492 79.4115625 104.98046875 78.4765625 C105.64888794 77.25743164 105.64888794 77.25743164 106.33081055 76.01367188 C107.78125 74.1328125 107.78125 74.1328125 109.72900391 73.2668457 C113.38232695 73.02824538 116.35679947 75.1118487 119.46875 76.8203125 C120.15775391 77.17287109 120.84675781 77.52542969 121.55664062 77.88867188 C126.46598499 80.52919436 126.46598499 80.52919436 127.73364258 82.95629883 C127.80684837 86.30311763 125.94765375 87.67797261 123.78125 90.1328125 C122.59947239 91.89065673 121.44413493 93.66649584 120.3125 95.45703125 C119.66522949 96.47627686 119.01795898 97.49552246 118.35107422 98.5456543 C117.66803223 99.6262915 116.98499023 100.70692871 116.28125 101.8203125 C111.03148086 110.08788529 105.71786346 118.30341818 100.23828125 126.42089844 C97.44446717 130.57926613 94.73072109 134.77824986 92.0703125 139.0234375 C91.12502686 140.52934448 91.12502686 140.52934448 90.16064453 142.06567383 C88.93354616 144.02746906 87.71286438 145.99329661 86.49951172 147.96362305 C85.66444092 149.29840698 85.66444092 149.29840698 84.8125 150.66015625 C84.32330078 151.45156006 83.83410156 152.24296387 83.33007812 153.05834961 C81.69764836 155.24478651 80.03398472 156.61428218 77.78125 158.1328125 C77.18699219 157.69710937 76.59273438 157.26140625 75.98046875 156.8125 C70.81702507 153.10252958 65.61889001 149.84735896 59.99609375 146.88671875 C57.42784428 145.48557171 54.9184328 144.03839865 52.41015625 142.53515625 C51.64646729 142.07794189 50.88277832 141.62072754 50.09594727 141.1496582 C48.57117371 140.23279985 47.04943217 139.31087721 45.53100586 138.38354492 C44.47925171 137.75283081 44.47925171 137.75283081 43.40625 137.109375 C42.77976562 136.72861816 42.15328125 136.34786133 41.5078125 135.95556641 C39.6486412 134.91772184 39.6486412 134.91772184 36.78125 135.1328125 C35.18008291 136.9345814 35.18008291 136.9345814 33.65625 139.2578125 C28.83603413 145.7324245 23.72657894 149.54374671 15.78125 151.1328125 C15.78125 195.3528125 15.78125 239.5728125 15.78125 285.1328125 C9.18125 285.4628125 2.58125 285.7928125 -4.21875 286.1328125 C-5.2433715 283.058948 -5.34206152 280.9798456 -5.33900452 277.76081848 C-5.34106651 276.08862999 -5.34106651 276.08862999 -5.34317017 274.38265991 C-5.33957489 273.15914825 -5.33597961 271.9356366 -5.33227539 270.67504883 C-5.33242142 269.38713943 -5.33256744 268.09923004 -5.3327179 266.77229309 C-5.33300513 263.23951164 -5.32712032 259.70676406 -5.32014394 256.17399049 C-5.31389812 252.48242505 -5.31330563 248.79085885 -5.31211853 245.09928894 C-5.30900884 238.10826941 -5.30080033 231.11726549 -5.29076904 224.12625283 C-5.27959667 216.1674493 -5.27409461 208.20864503 -5.26907361 200.24983561 C-5.25861743 183.87748543 -5.24102498 167.50515096 -5.21875 151.1328125 C-6.00660889 150.82939941 -6.79446777 150.52598633 -7.60620117 150.21337891 C-11.15176435 148.74691198 -13.35495152 146.66361116 -16.21875 144.1328125 C-20.50153639 145.70855466 -22.90394083 148.97095051 -25.71875 152.3828125 C-26.78885106 153.65642768 -27.85916972 154.92986007 -28.9296875 156.203125 C-29.47463867 156.85571289 -30.01958984 157.50830078 -30.58105469 158.18066406 C-33.14004691 161.23100721 -35.74427716 164.24198485 -38.34375 167.2578125 C-43.70060775 173.49575553 -48.97549228 179.79914278 -54.21875 186.1328125 C-63.22686781 184.77112027 -71.1705488 174.36533584 -77.125 168.1015625 C-79.14829703 165.92324447 -79.14829703 165.92324447 -82.21875 165.1328125 C-82.68023437 166.13957031 -83.14171875 167.14632812 -83.6171875 168.18359375 C-87.63103555 176.86492586 -91.86563137 185.38599034 -96.36254883 193.8269043 C-99.8643193 200.4136472 -103.20641675 207.07130737 -106.51879883 213.75488281 C-109.71354807 220.1785904 -113.03297188 226.52853531 -116.43969727 232.84228516 C-117.91197749 235.58419176 -119.23230926 238.17349027 -120.21875 241.1328125 C-122.54833984 240.93017578 -122.54833984 240.93017578 -125.21875 240.1328125 C-126.71337891 238.08935547 -126.71337891 238.08935547 -127.9453125 235.375 C-128.41388672 234.36896729 -128.88246094 233.36293457 -129.36523438 232.32641602 C-130.09709961 230.68370728 -130.09709961 230.68370728 -130.84375 229.0078125 C-131.90854836 226.70168169 -132.97365903 224.39569507 -134.0390625 222.08984375 C-134.57176758 220.92018066 -135.10447266 219.75051758 -135.65332031 218.54541016 C-137.93943675 213.56173336 -140.33180387 208.6312304 -142.71875 203.6953125 C-147.2261994 194.30390813 -151.58523799 184.84720162 -155.92724609 175.37841797 C-159.09391579 168.49766285 -162.35243301 161.67759323 -165.80932617 154.93774414 C-167.45490847 151.72321316 -168.93865695 148.51048378 -170.21875 145.1328125 C-172.39384356 147.91209872 -174.17513946 150.7124034 -175.84375 153.8203125 C-176.3696875 154.79613281 -176.895625 155.77195313 -177.4375 156.77734375 C-178.69498176 159.1461526 -179.94525715 161.51777882 -181.1875 163.89453125 C-195.07703156 190.42023484 -195.07703156 190.42023484 -202.21875 201.1328125 C-203.20875 201.1328125 -204.19875 201.1328125 -205.21875 201.1328125 C-207.234375 198.97265625 -207.234375 198.97265625 -209.46875 196.0703125 C-212.64420314 192.05218248 -215.86372348 188.35706224 -219.54296875 184.8046875 C-221.34475297 183.00710325 -222.99852256 181.12620948 -224.65625 179.1953125 C-227.10340978 176.34670853 -229.65077403 173.68750116 -232.34375 171.0703125 C-235.80642388 167.66791728 -238.47580193 164.12967968 -241.21875 160.1328125 C-242.05986328 159.41544922 -242.05986328 159.41544922 -242.91796875 158.68359375 C-244.21875 157.1328125 -244.21875 157.1328125 -244.14453125 155.16796875 C-242.97965674 152.60721087 -241.56715254 151.36237825 -239.40625 149.5703125 C-238.37564453 148.70212891 -238.37564453 148.70212891 -237.32421875 147.81640625 C-236.62941406 147.26082031 -235.93460938 146.70523438 -235.21875 146.1328125 C-234.55488281 145.54628906 -233.89101562 144.95976562 -233.20703125 144.35546875 C-231.21875 143.1328125 -231.21875 143.1328125 -229.28344727 143.3605957 C-226.83639454 144.27581715 -225.8665462 145.27378955 -224.1953125 147.265625 C-223.64875 147.90757812 -223.1021875 148.54953125 -222.5390625 149.2109375 C-221.97960937 149.88640625 -221.42015625 150.561875 -220.84375 151.2578125 C-220.29203125 151.91007813 -219.7403125 152.56234375 -219.171875 153.234375 C-216.94323324 155.87107793 -214.72457267 158.51471542 -212.53808594 161.18652344 C-212.00731445 161.8262207 -211.47654297 162.46591797 -210.9296875 163.125 C-210.4557959 163.70362793 -209.9819043 164.28225586 -209.49365234 164.87841797 C-208.27923474 166.36659598 -208.27923474 166.36659598 -206.21875 166.1328125 C-202.04006912 158.867847 -197.8953334 151.59183227 -193.90234375 144.22265625 C-190.48081313 137.94323462 -186.99435062 131.69956982 -183.51220703 125.45361328 C-182.65815311 123.92121679 -181.80494587 122.38834807 -180.95263672 120.85498047 C-179.75223519 118.69615185 -178.54846142 116.53923834 -177.34375 114.3828125 C-176.80850708 113.41855347 -176.80850708 113.41855347 -176.26245117 112.43481445 C-174.07760185 108.53524718 -171.73984152 104.81835436 -169.21875 101.1328125 C-165.76046213 103.91217269 -164.35538408 107.81409925 -162.59375 111.7578125 C-159.84487914 117.76892459 -156.93808818 123.63860383 -153.78125 129.4453125 C-149.12551683 138.06390746 -145.15339964 146.94715079 -141.20605469 155.90722656 C-139.89018587 158.873463 -138.52687191 161.81653197 -137.15625 164.7578125 C-134.3957947 170.70163407 -131.73974505 176.68968481 -129.10913086 182.69189453 C-126.95272429 187.58340279 -124.64180722 192.36746663 -122.21875 197.1328125 C-119.50808658 194.5701464 -118.37048683 192.45053525 -117.03125 188.9453125 C-114.16622609 181.81706438 -110.74961732 175.03685307 -107.26708984 168.19726562 C-105.56770698 164.85073988 -103.89445647 161.49123676 -102.21875 158.1328125 C-101.55995995 156.81637416 -100.90110551 155.49996804 -100.2421875 154.18359375 C-98.82522596 151.35036457 -97.41486927 148.51394178 -96.0078125 145.67578125 C-95.64558594 144.94681641 -95.28335938 144.21785156 -94.91015625 143.46679688 C-94.21579781 142.06917796 -93.52300771 140.67077841 -92.83203125 139.27148438 C-91.41953793 136.43196591 -89.98101609 133.77621164 -88.21875 131.1328125 C-84.37331488 132.73659587 -81.59169635 135.32054541 -78.59375 138.1328125 C-78.07103516 138.61685547 -77.54832031 139.10089844 -77.00976562 139.59960938 C-72.6819448 143.63366297 -68.50319288 147.80078448 -64.375 152.0390625 C-62.41929649 153.93807896 -60.43932373 155.55822386 -58.21875 157.1328125 C-54.84894123 155.69711031 -52.91410364 153.95782416 -50.53125 151.1953125 C-49.83515625 150.3909375 -49.1390625 149.5865625 -48.421875 148.7578125 C-45.41151768 145.17100378 -42.45727752 141.54181652 -39.53515625 137.8828125 C-37.21875 135.1328125 -37.21875 135.1328125 -34.68359375 132.6328125 C-29.13550062 127.14626715 -27.59202288 123.9859429 -27.4921875 116.21875 C-26.74186372 107.75081017 -21.42204321 100.65814087 -15.5390625 94.8515625 C-13.41836768 93.28067745 -11.43317766 92.18374621 -9.07373047 91.02539062 C-7.99138626 90.49177917 -7.99138626 90.49177917 -6.88717651 89.9473877 C-6.06130539 89.54417297 -6.06130539 89.54417297 -5.21875 89.1328125 C-5.22097061 88.03256241 -5.22319122 86.93231232 -5.22547913 85.79872131 C-5.24570967 75.4535843 -5.26072171 65.10845127 -5.27056217 54.76329899 C-5.27579122 49.44416037 -5.28288927 44.12503766 -5.29418945 38.8059082 C-5.30501755 33.67717265 -5.31102667 28.54845244 -5.31362724 23.41970634 C-5.31548163 21.45839636 -5.31910251 19.49708726 -5.32448006 17.53578377 C-5.33168946 14.79865803 -5.33274099 12.06159653 -5.33227539 9.32446289 C-5.33587067 8.50519318 -5.33946594 7.68592346 -5.34317017 6.84182739 C-5.33050581 0.00766507 -5.33050581 0.00766507 0 0 Z " fill="#1EBAFB" transform="translate(254.21875,18.8671875)"/>
<path d="M0 0 C3.45828787 2.77936019 4.86336592 6.68128675 6.625 10.625 C9.37387086 16.63611209 12.28066182 22.50579133 15.4375 28.3125 C20.09323317 36.93109496 24.06535036 45.81433829 28.01269531 54.77441406 C29.32856413 57.7406505 30.69187809 60.68371947 32.0625 63.625 C34.8229553 69.56882157 37.47900495 75.55687231 40.10961914 81.55908203 C42.26602571 86.45059029 44.57694278 91.23465413 47 96 C49.0245738 94.06745228 50.42105792 92.36841312 52 90 C52.46019531 89.42765625 52.92039062 88.8553125 53.39453125 88.265625 C55.51910776 85.26743917 57.08241854 82.04319807 58.6875 78.75 C59.39955909 77.30590057 60.1118038 75.86189266 60.82421875 74.41796875 C61.18563965 73.68239746 61.54706055 72.94682617 61.91943359 72.18896484 C62.94241596 70.11665126 63.97764514 68.05114436 65.01953125 65.98828125 C69.26814495 57.57253698 73.35143003 49.090815 77.3359375 40.546875 C78.52542968 38.01152546 79.7273077 35.4939627 81 33 C84 33 84 33 86.38671875 35.1953125 C87.24910156 36.12085938 88.11148438 37.04640625 89 38 C94.28761445 43.36524664 99.58072409 48.62605524 105.3046875 53.52734375 C107.30002862 55.26062394 109.16992634 57.09367328 111 59 C115.10381928 57.44797554 117.37860146 54.49674014 120.0625 51.1875 C121.02966803 50.01799764 121.99712492 48.84873413 122.96484375 47.6796875 C123.46097168 47.07608398 123.95709961 46.47248047 124.46826172 45.85058594 C126.0058081 43.99298288 127.56296248 42.15401846 129.12890625 40.3203125 C129.63091553 39.7322583 130.1329248 39.1442041 130.65014648 38.53833008 C131.61893032 37.40468781 132.58847098 36.27169179 133.55883789 35.1394043 C136.03823561 32.2474923 136.03823561 32.2474923 138 29 C138.66 29 139.32 29 140 29 C140.66 27.68 141.32 26.36 142 25 C145.01708345 26.50854172 145.64457302 28.89269057 147.125 31.875 C147.66382813 32.94492188 148.20265625 34.01484375 148.7578125 35.1171875 C150 38 150 38 150 41 C148.48828125 43.171875 148.48828125 43.171875 146.3125 45.75 C145.49007812 46.72839844 144.66765625 47.70679688 143.8203125 48.71484375 C142.88172529 49.81119632 141.9415482 50.90618928 141 52 C140.25314941 52.86842529 140.25314941 52.86842529 139.49121094 53.75439453 C136.79132275 56.88737922 134.07947708 60.00955735 131.359375 63.125 C129.09200697 65.72759008 126.85545364 68.3525674 124.640625 71 C123.83298706 71.96039185 123.83298706 71.96039185 123.0090332 72.94018555 C121.98648451 74.15844342 120.96909769 75.38105894 119.95776367 76.60864258 C117.55210713 79.46428408 115.55124542 81.68812816 112 83 C111.3709375 82.43152344 110.741875 81.86304688 110.09375 81.27734375 C104.76769626 76.47266575 99.41013817 71.70962227 94 67 C92.49968066 65.68786505 90.99967399 64.37537249 89.5 63.0625 C88.49453125 62.18271484 88.49453125 62.18271484 87.46875 61.28515625 C86.9840625 60.86105469 86.499375 60.43695313 86 60 C85.74476563 60.83789062 85.48953125 61.67578125 85.2265625 62.5390625 C83.88844426 66.31477194 82.19873089 69.81903268 80.375 73.375 C79.6509378 74.8046349 78.92698235 76.23432387 78.203125 77.6640625 C77.83509766 78.38754883 77.46707031 79.11103516 77.08789062 79.85644531 C75.41809449 83.14657324 73.77219357 86.44851648 72.125 89.75 C71.46099652 91.07685245 70.79693249 92.40367461 70.1328125 93.73046875 C68.60125926 96.79285484 67.0766635 99.85862477 65.5546875 102.92578125 C61.04046476 112.0088133 56.44960084 121.02788371 51.59375 129.93359375 C50.21513729 132.58607164 49.04565658 135.20286865 48 138 C47.34 138 46.68 138 46 138 C44.02 134.37 42.04 130.74 40 127 C39.34 127 38.68 127 38 127 C37.5875 126.030625 37.175 125.06125 36.75 124.0625 C33.79607429 117.18129447 30.76343741 110.36677646 27.375 103.6875 C17.411528 84.03434613 8.08704444 64.07101975 -1 44 C-3.14040059 46.8085855 -4.95335788 49.57394436 -6.625 52.6875 C-7.41390625 54.15123047 -7.41390625 54.15123047 -8.21875 55.64453125 C-9.47623176 58.0133401 -10.72650715 60.38496632 -11.96875 62.76171875 C-25.85828156 89.28742234 -25.85828156 89.28742234 -33 100 C-33.99 100 -34.98 100 -36 100 C-38.015625 97.83984375 -38.015625 97.83984375 -40.25 94.9375 C-43.42545314 90.91936998 -46.64497348 87.22424974 -50.32421875 83.671875 C-52.12600297 81.87429075 -53.77977256 79.99339698 -55.4375 78.0625 C-57.88465978 75.21389603 -60.43202403 72.55468866 -63.125 69.9375 C-66.58767388 66.53510478 -69.25705193 62.99686718 -72 59 C-72.84111328 58.28263672 -72.84111328 58.28263672 -73.69921875 57.55078125 C-75 56 -75 56 -74.92578125 54.03515625 C-73.76090674 51.47439837 -72.34840254 50.22956575 -70.1875 48.4375 C-69.15689453 47.56931641 -69.15689453 47.56931641 -68.10546875 46.68359375 C-67.06326172 45.85021484 -67.06326172 45.85021484 -66 45 C-65.00419922 44.12021484 -65.00419922 44.12021484 -63.98828125 43.22265625 C-62 42 -62 42 -60.06469727 42.2277832 C-57.61764454 43.14300465 -56.6477962 44.14097705 -54.9765625 46.1328125 C-54.15671875 47.09574219 -54.15671875 47.09574219 -53.3203125 48.078125 C-52.76085937 48.75359375 -52.20140625 49.4290625 -51.625 50.125 C-51.07328125 50.77726562 -50.5215625 51.42953125 -49.953125 52.1015625 C-47.72448324 54.73826543 -45.50582267 57.38190292 -43.31933594 60.05371094 C-42.52317871 61.01325684 -42.52317871 61.01325684 -41.7109375 61.9921875 C-41.2370459 62.57081543 -40.7631543 63.14944336 -40.27490234 63.74560547 C-39.06048474 65.23378348 -39.06048474 65.23378348 -37 65 C-32.82131912 57.7350345 -28.6765834 50.45901977 -24.68359375 43.08984375 C-21.26206313 36.81042212 -17.77560062 30.56675732 -14.29345703 24.32080078 C-13.43940311 22.78840429 -12.58619587 21.25553557 -11.73388672 19.72216797 C-10.53348519 17.56333935 -9.32971142 15.40642584 -8.125 13.25 C-7.58975708 12.28574097 -7.58975708 12.28574097 -7.04370117 11.30200195 C-4.85885185 7.40243468 -2.52109152 3.68554186 0 0 Z " fill="#F8FBFB" transform="translate(85,120)"/>
<path d="M0 0 C6.16356805 1.6658292 11.48259656 4.87805286 17 8 C13.48711361 14.59936456 9.567762 20.81451783 5.375 27 C4.12153104 28.86530458 2.86893673 30.73119718 1.6171875 32.59765625 C1.00198242 33.51434082 0.38677734 34.43102539 -0.24707031 35.37548828 C-2.69634723 39.04258117 -5.10688159 42.73357578 -7.5 46.4375 C-7.92885498 47.10031982 -8.35770996 47.76313965 -8.79956055 48.44604492 C-11.44466745 52.548511 -14.0552357 56.67166982 -16.65234375 60.8046875 C-17.28011719 61.80056885 -17.90789062 62.7964502 -18.5546875 63.82250977 C-19.78466314 65.77576595 -21.01012863 67.73187148 -22.23046875 69.69116211 C-22.7925 70.58327393 -23.35453125 71.47538574 -23.93359375 72.39453125 C-24.42915771 73.18706299 -24.92472168 73.97959473 -25.43530273 74.79614258 C-27.09177225 77.12926011 -28.92537023 79.03572586 -31 81 C-32.01578125 80.35933594 -33.0315625 79.71867187 -34.078125 79.05859375 C-42.30291186 73.88563306 -50.56608646 68.8267146 -59 64 C-59.73347656 63.5771875 -60.46695312 63.154375 -61.22265625 62.71875 C-63.46082828 61.43191598 -65.69031233 60.15484384 -68 59 C-70.81371415 55.18279339 -70.22236937 50.76644086 -70.125 46.25 C-70.11597656 45.45722656 -70.10695313 44.66445312 -70.09765625 43.84765625 C-70.07417012 41.89830719 -70.03830137 39.94911425 -70 38 C-58.23167249 43.81111897 -46.59277953 49.84655871 -35 56 C-34.65775391 55.01580078 -34.65775391 55.01580078 -34.30859375 54.01171875 C-32.58227068 50.03859908 -30.35050741 46.48394452 -28.0625 42.8125 C-27.07513298 41.21768798 -26.08816626 39.62262806 -25.1015625 38.02734375 C-24.59270508 37.2060498 -24.08384766 36.38475586 -23.55957031 35.53857422 C-21.98542676 32.97627857 -20.43837451 30.39938482 -18.8984375 27.81640625 C-18.15388306 26.57443481 -18.15388306 26.57443481 -17.39428711 25.30737305 C-16.43398775 23.70397728 -15.47893779 22.09742417 -14.52954102 20.48754883 C-13.40745145 18.62448424 -12.21083697 16.80664564 -11 15 C-10.34 15 -9.68 15 -9 15 C-7.55307418 12.89914656 -6.23038317 10.81758184 -4.9375 8.625 C-4.57333984 8.02171875 -4.20917969 7.4184375 -3.83398438 6.796875 C-2.48985704 4.56080366 -1.16717771 2.33435542 0 0 Z " fill="#F9FCFC" transform="translate(363,94)"/>
<path d="M0 0 C4.75256526 0.41441664 8.308652 2.67503554 12.3125 5.0625 C13.28026367 5.62807617 13.28026367 5.62807617 14.26757812 6.20507812 C15.84878152 7.13037493 17.4249146 8.06432681 19 9 C18.38190708 12.32876548 17.20219016 14.36154068 15.1875 17.0625 C11.68985952 21.92350647 8.48455695 26.92430004 5.3125 32 C0.87922096 39.07826308 -3.66932917 46.06139998 -8.34057617 52.98461914 C-11.20692503 57.25208612 -13.99670593 61.55778907 -16.7265625 65.9140625 C-17.35449707 66.9146167 -17.98243164 67.9151709 -18.62939453 68.94604492 C-19.85312729 70.90302711 -21.07052131 72.86399095 -22.28076172 74.8293457 C-22.83779785 75.71968506 -23.39483398 76.61002441 -23.96875 77.52734375 C-24.45794922 78.31874756 -24.94714844 79.11015137 -25.45117188 79.92553711 C-27.08360164 82.11197401 -28.74726528 83.48146968 -31 85 C-31.89138672 84.34644531 -31.89138672 84.34644531 -32.80078125 83.6796875 C-37.96422493 79.96971708 -43.16235999 76.71454646 -48.78515625 73.75390625 C-51.35340572 72.35275921 -53.8628172 70.90558615 -56.37109375 69.40234375 C-57.13478271 68.94512939 -57.89847168 68.48791504 -58.68530273 68.0168457 C-60.21007629 67.09998735 -61.73181783 66.17806471 -63.25024414 65.25073242 C-63.95141357 64.83025635 -64.65258301 64.40978027 -65.375 63.9765625 C-66.00148438 63.59580566 -66.62796875 63.21504883 -67.2734375 62.82275391 C-69.1326088 61.78490934 -69.1326088 61.78490934 -72 62 C-73.60116709 63.8017689 -73.60116709 63.8017689 -75.125 66.125 C-79.94521587 72.599612 -85.05467106 76.41093421 -93 78 C-93 122.22 -93 166.44 -93 212 C-102.9 212.495 -102.9 212.495 -113 213 C-114.0427763 209.87167111 -114.12076845 207.70810913 -114.11352539 204.42700195 C-114.11344986 203.28604568 -114.11337433 202.14508942 -114.11329651 200.96955872 C-114.10813522 199.73823715 -114.10297394 198.50691559 -114.09765625 197.23828125 C-114.0962413 195.97735153 -114.09482635 194.71642181 -114.09336853 193.4172821 C-114.08871575 190.06848291 -114.07973342 186.71975189 -114.06866455 183.37097168 C-114.05842687 179.95239857 -114.05386586 176.53381841 -114.04882812 173.11523438 C-114.03779099 166.41013739 -114.02104686 159.70507263 -114 153 C-111.7556805 156.36647925 -111.7549484 157.45622646 -111.77294922 161.3894043 C-111.77310028 162.49031906 -111.77325134 163.59123383 -111.77340698 164.72550964 C-111.78372955 165.91308365 -111.79405212 167.10065765 -111.8046875 168.32421875 C-111.8075174 169.54075638 -111.81034729 170.75729401 -111.81326294 172.01069641 C-111.82447397 175.90306358 -111.84958052 179.79520216 -111.875 183.6875 C-111.88502859 186.32356439 -111.89415465 188.95963238 -111.90234375 191.59570312 C-111.92441637 198.0638904 -111.95895279 204.53190642 -112 211 C-106.72 211 -101.44 211 -96 211 C-95.97686481 194.49307024 -95.95901243 177.98614715 -95.94818783 161.47920513 C-95.9430285 153.81498857 -95.93599269 146.15078225 -95.92456055 138.48657227 C-95.91460264 131.80753171 -95.90814393 125.12849857 -95.90591151 118.44945079 C-95.90460629 114.91198197 -95.9015323 111.37453439 -95.89426994 107.83707237 C-95.88623414 103.89097059 -95.88600958 99.9448897 -95.88647461 95.9987793 C-95.88287933 94.82202133 -95.87928406 93.64526337 -95.87557983 92.43284607 C-95.8769545 91.36012451 -95.87832916 90.28740295 -95.87974548 89.18217468 C-95.87836279 87.78151024 -95.87836279 87.78151024 -95.87695217 86.35254955 C-95.90336928 83.84615237 -95.90336928 83.84615237 -97 81 C-97.66 80.67 -98.32 80.34 -99 80 C-99 78.68 -99 77.36 -99 76 C-97.68 76 -96.36 76 -95 76 C-95 75.34 -95 74.68 -95 74 C-93.515 73.505 -93.515 73.505 -92 73 C-91.505 71.515 -91.505 71.515 -91 70 C-88.75046287 68.44859508 -87.60406582 67.91116679 -84.875 68.3125 C-83 69 -83 69 -81 70 C-80.67 68.35 -80.34 66.7 -80 65 C-79.34 65 -78.68 65 -78 65 C-78 64.34 -78 63.68 -78 63 C-76.68 63 -75.36 63 -74 63 C-74.185625 62.21625 -74.37125 61.4325 -74.5625 60.625 C-75 58 -75 58 -74 56 C-73.01 56 -72.02 56 -71 56 C-70.67 55.01 -70.34 54.02 -70 53 C-68.74335022 55.90600261 -68 57.79604584 -68 61 C-67.12988281 61.2578125 -66.25976562 61.515625 -65.36328125 61.78125 C-61.93837148 63.02233229 -59.25168927 64.54020398 -56.1875 66.5 C-54.51107422 67.551875 -54.51107422 67.551875 -52.80078125 68.625 C-52.1970166 69.00398438 -51.59325195 69.38296875 -50.97119141 69.7734375 C-47.29823643 72.05891258 -43.59077749 74.28503062 -39.875 76.5 C-39.14047607 76.94537109 -38.40595215 77.39074219 -37.64916992 77.84960938 C-36.95799072 78.26017578 -36.26681152 78.67074219 -35.5546875 79.09375 C-34.94093262 79.46177734 -34.32717773 79.82980469 -33.69482422 80.20898438 C-31.85864013 81.21146417 -31.85864013 81.21146417 -29 81 C-27.23180197 78.44935894 -25.66848274 75.93358354 -24.125 73.25 C-23.14190596 71.59091461 -22.15612505 69.93341903 -21.16796875 68.27734375 C-20.39332275 66.97579346 -20.39332275 66.97579346 -19.60302734 65.64794922 C-16.97565855 61.30794893 -14.21292457 57.05883402 -11.4375 52.8125 C-10.88803711 51.97066162 -10.33857422 51.12882324 -9.77246094 50.26147461 C-6.1112134 44.66681427 -2.41211186 39.09804858 1.31030273 33.54394531 C6.29786491 26.08870154 11.14454176 18.54165282 16 11 C12.79509037 8.40962402 9.44649547 6.62056844 5.75 4.8125 C4.67234375 4.28269531 3.5946875 3.75289063 2.484375 3.20703125 C1.66453125 2.80871094 0.8446875 2.41039063 0 2 C-0.268125 2.71671875 -0.53625 3.4334375 -0.8125 4.171875 C-2.01283981 7.03057903 -3.40806482 9.59146825 -5 12.25 C-5.515625 13.12140625 -6.03125 13.9928125 -6.5625 14.890625 C-8 17 -8 17 -10 18 C-8.5216233 13.98832453 -6.60821705 10.42979591 -4.4375 6.75 C-3.81746094 5.69296875 -3.19742188 4.6359375 -2.55859375 3.546875 C-1 1 -1 1 0 0 Z M-99 206 C-96 207 -96 207 -96 207 Z " fill="#19A9EE" transform="translate(363,92)"/>
<path d="M0 0 C0.99 0.33 1.98 0.66 3 1 C3.09539062 1.68449219 3.19078125 2.36898437 3.2890625 3.07421875 C4.15003978 6.61747142 5.68968199 9.60941022 7.375 12.8125 C10.95731246 19.78509708 14.26404658 26.86063228 17.5 34 C20.91150397 41.5105707 24.40111599 48.95622944 28.13916016 56.30957031 C31.34380531 62.62592426 34.34214506 69.03477307 37.3359375 75.453125 C38.26293994 77.42898936 39.22090443 79.39361153 40.2890625 81.296875 C41 83 41 83 40 86 C33.94216005 75.04266676 28.54311683 63.84710373 23.31640625 52.47192383 C18.76044426 42.57228913 14.06485032 32.74425736 9.3125 22.9375 C8.96057587 22.20909912 8.60865173 21.48069824 8.24606323 20.73022461 C7.24600947 18.66135404 6.24276256 16.59406764 5.23828125 14.52734375 C4.93989349 13.90987778 4.64150574 13.2924118 4.33407593 12.65623474 C3.02023645 9.96392011 1.66625428 7.49938142 0 5 C-0.35449219 5.74378906 -0.70898438 6.48757812 -1.07421875 7.25390625 C-6.37119956 18.11720587 -12.31992777 28.58603549 -18.32910156 39.06835938 C-19.96402311 41.93687748 -21.57462194 44.81781663 -23.1796875 47.703125 C-24.16117331 49.44807701 -25.14293045 51.19287645 -26.125 52.9375 C-26.57391602 53.75436279 -27.02283203 54.57122559 -27.48535156 55.4128418 C-27.90526367 56.15187744 -28.32517578 56.89091309 -28.7578125 57.65234375 C-29.1202002 58.30195068 -29.48258789 58.95155762 -29.85595703 59.62084961 C-30.23349121 60.07596924 -30.61102539 60.53108887 -31 61 C-31.99 61 -32.98 61 -34 61 C-36.015625 58.83984375 -36.015625 58.83984375 -38.25 55.9375 C-41.42545314 51.91936998 -44.64497348 48.22424974 -48.32421875 44.671875 C-50.12600297 42.87429075 -51.77977256 40.99339698 -53.4375 39.0625 C-55.86593293 36.23658814 -58.3901464 33.5961458 -61.0625 31 C-64.82889966 27.29967753 -67.96991494 23.31557569 -71 19 C-70.67 18.34 -70.34 17.68 -70 17 C-68.1444613 18.99874119 -66.29055876 20.99896158 -64.4375 23 C-63.92380859 23.55300781 -63.41011719 24.10601562 -62.88085938 24.67578125 C-60.07840276 27.70452319 -57.32345264 30.76429034 -54.62109375 33.8828125 C-50.05253653 39.13041972 -45.23554039 44.13881863 -40.43359375 49.171875 C-39.74652344 49.89632812 -39.05945313 50.62078125 -38.3515625 51.3671875 C-37.73104004 52.01800293 -37.11051758 52.66881836 -36.47119141 53.33935547 C-35 55 -35 55 -34 57 C-33.34 57 -32.68 57 -32 57 C-30.67032232 55.11628996 -29.437305 53.16404069 -28.25 51.1875 C-27.89437988 50.59727051 -27.53875977 50.00704102 -27.17236328 49.39892578 C-24.50655409 44.94073432 -21.96753972 40.41923349 -19.51904297 35.83789062 C-18.09801014 33.18310348 -16.66222949 30.53716686 -15.21875 27.89453125 C-14.43540283 26.45980469 -14.43540283 26.45980469 -13.63623047 24.99609375 C-13.09627441 24.00738281 -12.55631836 23.01867187 -12 22 C-10.9295737 20.0378225 -9.85926073 18.07558316 -8.7890625 16.11328125 C-5.859375 10.7421875 -2.9296875 5.37109375 0 0 Z " fill="#879AAC" transform="translate(83,159)"/>
<path d="M0 0 C0.99 0.99 0.99 0.99 2 2 C1.31035156 2.73863281 0.62070313 3.47726563 -0.08984375 4.23828125 C-5.52596703 10.09488891 -10.73551866 16.04773787 -15.74609375 22.27734375 C-18.12119968 25.14640586 -20.60026837 27.88701803 -23.125 30.625 C-27.36048457 35.22447152 -31.26340848 39.98900807 -35 45 C-44.00811781 43.63830777 -51.9517988 33.23252334 -57.90625 26.96875 C-59.92954703 24.79043197 -59.92954703 24.79043197 -63 24 C-63.46148437 25.00675781 -63.92296875 26.01351562 -64.3984375 27.05078125 C-68.41228555 35.73211336 -72.64688137 44.25317784 -77.14379883 52.6940918 C-80.6455693 59.2808347 -83.98766675 65.93849487 -87.30004883 72.62207031 C-90.49479807 79.0457779 -93.81422188 85.39572281 -97.22094727 91.70947266 C-98.69322749 94.45137926 -100.01355926 97.04067777 -101 100 C-103.3203125 99.8046875 -103.3203125 99.8046875 -106 99 C-107.6171875 96.8203125 -107.6171875 96.8203125 -108.875 94.125 C-109.30554688 93.24070312 -109.73609375 92.35640625 -110.1796875 91.4453125 C-111 89 -111 89 -110 86 C-108.99466333 87.62170379 -107.99588093 89.24747237 -107 90.875 C-106.443125 91.77992188 -105.88625 92.68484375 -105.3125 93.6171875 C-104 96 -104 96 -104 98 C-103.34 98 -102.68 98 -102 98 C-101.61328125 96.73542969 -101.61328125 96.73542969 -101.21875 95.4453125 C-99.91524892 91.76041522 -98.28035693 88.34383866 -96.5 84.875 C-95.77837798 83.45195871 -95.05703695 82.02877491 -94.3359375 80.60546875 C-93.9553418 79.85700684 -93.57474609 79.10854492 -93.18261719 78.33740234 C-91.9775823 75.95569218 -90.78739787 73.56710408 -89.6015625 71.17578125 C-85.46098867 62.83129942 -81.25229129 54.53553025 -76.875 46.3125 C-72.28068307 37.67785487 -68.07500745 28.88989055 -64 20 C-60.28731906 21.54127351 -58.01884302 23.80843234 -55.25 26.6875 C-49.82010837 32.22951329 -44.24596924 37.3911901 -38 42 C-34.40278644 40.5045292 -32.36902779 38.47293692 -29.8125 35.5625 C-29.02488281 34.66660156 -28.23726563 33.77070313 -27.42578125 32.84765625 C-24.30898137 29.18880422 -21.27944572 25.46412275 -18.2578125 21.7265625 C-16.03207844 19.03873833 -13.72817738 16.45152981 -11.375 13.875 C-7.32589328 9.43450335 -3.60820603 4.80320674 0 0 Z " fill="#8F9DB1" transform="translate(235,160)"/>
<path d="M0 0 C4.75256526 0.41441664 8.308652 2.67503554 12.3125 5.0625 C13.28026367 5.62807617 13.28026367 5.62807617 14.26757812 6.20507812 C15.84878152 7.13037493 17.4249146 8.06432681 19 9 C18.38190708 12.32876548 17.20219016 14.36154068 15.1875 17.0625 C11.68985952 21.92350647 8.48455695 26.92430004 5.3125 32 C0.87922096 39.07826308 -3.66932917 46.06139998 -8.34057617 52.98461914 C-11.20692503 57.25208612 -13.99670593 61.55778907 -16.7265625 65.9140625 C-17.35449707 66.9146167 -17.98243164 67.9151709 -18.62939453 68.94604492 C-19.85312729 70.90302711 -21.07052131 72.86399095 -22.28076172 74.8293457 C-22.83779785 75.71968506 -23.39483398 76.61002441 -23.96875 77.52734375 C-24.45794922 78.31874756 -24.94714844 79.11015137 -25.45117188 79.92553711 C-27.08360164 82.11197401 -28.74726528 83.48146968 -31 85 C-31.59425781 84.56429687 -32.18851562 84.12859375 -32.80078125 83.6796875 C-37.9652312 79.96899407 -43.16328274 76.71187355 -48.7890625 73.75390625 C-51.34827262 72.35599221 -53.84160624 70.90985318 -56.3359375 69.40234375 C-57.47470337 68.71652222 -57.47470337 68.71652222 -58.63647461 68.0168457 C-60.1493235 67.10175271 -61.65810279 66.17989157 -63.16235352 65.25073242 C-63.86030029 64.83025635 -64.55824707 64.40978027 -65.27734375 63.9765625 C-65.89859131 63.59580566 -66.51983887 63.21504883 -67.15991211 62.82275391 C-69.27265837 61.72787814 -69.27265837 61.72787814 -73 62 C-72.34 59.03 -71.68 56.06 -71 53 C-69 57 -69 57 -68.75 59.125 C-68.37875 60.053125 -68.37875 60.053125 -68 61 C-66.0008747 61.66928504 -64.00070584 62.3354546 -62 63 C-60.02902739 64.10918183 -58.09277776 65.2814213 -56.1875 66.5 C-55.06988281 67.20125 -53.95226562 67.9025 -52.80078125 68.625 C-51.89513428 69.19347656 -51.89513428 69.19347656 -50.97119141 69.7734375 C-47.29823643 72.05891258 -43.59077749 74.28503062 -39.875 76.5 C-38.77321411 77.16805664 -38.77321411 77.16805664 -37.64916992 77.84960938 C-36.95799072 78.26017578 -36.26681152 78.67074219 -35.5546875 79.09375 C-34.94093262 79.46177734 -34.32717773 79.82980469 -33.69482422 80.20898438 C-31.85864013 81.21146417 -31.85864013 81.21146417 -29 81 C-27.23180197 78.44935894 -25.66848274 75.93358354 -24.125 73.25 C-23.14190596 71.59091461 -22.15612505 69.93341903 -21.16796875 68.27734375 C-20.39332275 66.97579346 -20.39332275 66.97579346 -19.60302734 65.64794922 C-16.97565855 61.30794893 -14.21292457 57.05883402 -11.4375 52.8125 C-10.88803711 51.97066162 -10.33857422 51.12882324 -9.77246094 50.26147461 C-6.1112134 44.66681427 -2.41211186 39.09804858 1.31030273 33.54394531 C6.29786491 26.08870154 11.14454176 18.54165282 16 11 C12.79509037 8.40962402 9.44649547 6.62056844 5.75 4.8125 C4.67234375 4.28269531 3.5946875 3.75289063 2.484375 3.20703125 C1.66453125 2.80871094 0.8446875 2.41039063 0 2 C-0.268125 2.71671875 -0.53625 3.4334375 -0.8125 4.171875 C-2.01283981 7.03057903 -3.40806482 9.59146825 -5 12.25 C-5.515625 13.12140625 -6.03125 13.9928125 -6.5625 14.890625 C-8 17 -8 17 -10 18 C-8.5216233 13.98832453 -6.60821705 10.42979591 -4.4375 6.75 C-3.81746094 5.69296875 -3.19742188 4.6359375 -2.55859375 3.546875 C-1 1 -1 1 0 0 Z " fill="#ABB6C7" transform="translate(363,92)"/>
<path d="M0 0 C1.27423828 -0.00193359 1.27423828 -0.00193359 2.57421875 -0.00390625 C3.91419922 0.00189453 3.91419922 0.00189453 5.28125 0.0078125 C6.17457031 0.00394531 7.06789063 0.00007813 7.98828125 -0.00390625 C8.83777344 -0.00261719 9.68726563 -0.00132813 10.5625 0 C11.34689453 0.00112793 12.13128906 0.00225586 12.93945312 0.00341797 C14.78125 0.1328125 14.78125 0.1328125 15.78125 1.1328125 C15.90641637 3.87086454 15.96732673 6.58492969 15.98657227 9.32446289 C15.99647186 10.18292313 16.00637146 11.04138336 16.01657104 11.92585754 C16.04828309 14.77736609 16.07298164 17.62889132 16.09765625 20.48046875 C16.11821741 22.45202581 16.13921365 24.42357838 16.16062927 26.39512634 C16.21593653 31.59502535 16.2653075 36.7949647 16.31347656 41.99493408 C16.36362857 47.29678964 16.41934744 52.5985863 16.47460938 57.90039062 C16.58229673 68.31114765 16.68371805 78.72195573 16.78125 89.1328125 C17.86921875 89.58785156 18.9571875 90.04289062 20.078125 90.51171875 C25.30017937 92.69582443 29.6674459 95.28911723 32.78125 100.1328125 C30.14474363 99.64457058 28.56436281 98.99183583 26.28125 97.5078125 C23.91171851 95.88170278 23.91171851 95.88170278 21.46875 96.4453125 C20.911875 96.6721875 20.355 96.8990625 19.78125 97.1328125 C20.11125 95.4828125 20.44125 93.8328125 20.78125 92.1328125 C17.81125 91.1428125 17.81125 91.1428125 14.78125 90.1328125 C14.78125 61.0928125 14.78125 32.0528125 14.78125 2.1328125 C8.51125 2.1328125 2.24125 2.1328125 -4.21875 2.1328125 C-4.1465625 3.62554688 -4.074375 5.11828125 -4 6.65625 C-3.19669024 25.44023823 -3.13198536 44.20877897 -3.15625 63.0078125 C-3.15710602 63.67568535 -3.15796204 64.3435582 -3.15884399 65.03166962 C-3.17035386 73.39874312 -3.19059902 81.76577911 -3.21875 90.1328125 C-4.188125 90.5659375 -5.1575 90.9990625 -6.15625 91.4453125 C-9.49606765 92.8342986 -9.49606765 92.8342986 -10.21875 96.1328125 C-13.15625 97.8828125 -13.15625 97.8828125 -16.21875 99.1328125 C-16.87875 98.8028125 -17.53875 98.4728125 -18.21875 98.1328125 C-16.99739002 96.99934195 -15.76625819 95.87639663 -14.53125 94.7578125 C-13.84675781 94.13132812 -13.16226563 93.50484375 -12.45703125 92.859375 C-10.1175603 91.05475692 -7.96639028 90.17138471 -5.21875 89.1328125 C-5.22097061 88.03256241 -5.22319122 86.93231232 -5.22547913 85.79872131 C-5.24570967 75.4535843 -5.26072171 65.10845127 -5.27056217 54.76329899 C-5.27579122 49.44416037 -5.28288927 44.12503766 -5.29418945 38.8059082 C-5.30501755 33.67717265 -5.31102667 28.54845244 -5.31362724 23.41970634 C-5.31548163 21.45839636 -5.31910251 19.49708726 -5.32448006 17.53578377 C-5.33168946 14.79865803 -5.33274099 12.06159653 -5.33227539 9.32446289 C-5.33587067 8.50519318 -5.33946594 7.68592346 -5.34317017 6.84182739 C-5.33050581 0.00766507 -5.33050581 0.00766507 0 0 Z " fill="#5DB5E4" transform="translate(254.21875,18.8671875)"/>
<path d="M0 0 C-1.08073852 2.16147703 -2.19363264 3.41039672 -4 5 C-4.66 5 -5.32 5 -6 5 C-6.22816406 5.53753906 -6.45632812 6.07507813 -6.69140625 6.62890625 C-8.40134664 9.72721616 -10.6286828 12.27889839 -12.9375 14.9375 C-13.92763544 16.08546153 -14.91720141 17.23391444 -15.90625 18.3828125 C-16.41542969 18.97352539 -16.92460937 19.56423828 -17.44921875 20.17285156 C-19.0059879 22.00705502 -20.52267206 23.86822022 -22.03125 25.7421875 C-22.51859619 26.34039307 -23.00594238 26.93859863 -23.50805664 27.55493164 C-24.44603999 28.70822662 -25.37526916 29.86870859 -26.29467773 31.03686523 C-27.58984375 32.61328125 -27.58984375 32.61328125 -30 35 C-34 35 -34 35 -36.078125 33.27734375 C-37.15320313 32.11912109 -37.15320313 32.11912109 -38.25 30.9375 C-42.31163151 26.69004221 -46.53928251 22.81864452 -51 19 C-52.67182371 17.56850095 -54.33847993 16.13094556 -56 14.6875 C-56.763125 14.03136719 -57.52625 13.37523437 -58.3125 12.69921875 C-60 11 -60 11 -60 9 C-60.99 9 -61.98 9 -63 9 C-63.12600586 9.57274658 -63.25201172 10.14549316 -63.38183594 10.7355957 C-64.0151438 13.05547344 -64.8618826 15.05865215 -65.890625 17.23046875 C-66.27089844 18.03419922 -66.65117187 18.83792969 -67.04296875 19.66601562 C-67.44128906 20.49810547 -67.83960938 21.33019531 -68.25 22.1875 C-68.63285156 23.00025391 -69.01570313 23.81300781 -69.41015625 24.65039062 C-71.35421205 28.73680893 -73.38050484 32.73682968 -75.609375 36.67578125 C-77.68743069 40.3558392 -79.37441238 44.09505583 -81 48 C-82.29182507 50.7709105 -83.64098596 53.51153561 -85 56.25 C-85.34289062 56.95640625 -85.68578125 57.6628125 -86.0390625 58.390625 C-86.54566406 59.4115625 -86.54566406 59.4115625 -87.0625 60.453125 C-87.36285156 61.06317383 -87.66320312 61.67322266 -87.97265625 62.30175781 C-89.10190964 64.16846091 -90.40493279 65.52128684 -92 67 C-91.35308652 62.36378673 -89.50951847 58.42589607 -87.5 54.25 C-87.14470215 53.50266602 -86.7894043 52.75533203 -86.42333984 51.98535156 C-83.61327631 46.13463002 -80.59761535 40.40858164 -77.51782227 34.6965332 C-72.66979131 25.6335511 -68.35200035 16.30848326 -64 7 C-58.92830177 7 -57.30141852 9.03738278 -53.875 12.375 C-53.02047241 13.18505493 -53.02047241 13.18505493 -52.14868164 14.01147461 C-47.71876693 18.23330161 -43.39012185 22.55719358 -39.12109375 26.94140625 C-37.17814643 28.82710282 -35.20505552 30.43496059 -33 32 C-29.63019123 30.56429781 -27.69535364 28.82501166 -25.3125 26.0625 C-24.26835937 24.8559375 -24.26835937 24.8559375 -23.203125 23.625 C-20.96419922 20.95734376 -18.75865059 18.26545458 -16.5625 15.5625 C-13.46834969 11.76586496 -10.34297298 8.00508488 -7.125 4.3125 C-6.40570313 3.48363281 -5.68640625 2.65476563 -4.9453125 1.80078125 C-3 0 -3 0 0 0 Z " fill="#7F8C9C" transform="translate(229,144)"/>
<path d="M0 0 C0.33 0 0.66 0 1 0 C1 43.89 1 87.78 1 133 C-8.9 133.495 -8.9 133.495 -19 134 C-20.0427763 130.87167111 -20.12076845 128.70810913 -20.11352539 125.42700195 C-20.11344986 124.28604568 -20.11337433 123.14508942 -20.11329651 121.96955872 C-20.10813522 120.73823715 -20.10297394 119.50691559 -20.09765625 118.23828125 C-20.0962413 116.97735153 -20.09482635 115.71642181 -20.09336853 114.4172821 C-20.08871575 111.06848291 -20.07973342 107.71975189 -20.06866455 104.37097168 C-20.05842687 100.95239857 -20.05386586 97.53381841 -20.04882812 94.11523438 C-20.03779099 87.41013739 -20.02104686 80.70507263 -20 74 C-17.7556805 77.36647925 -17.7549484 78.45622646 -17.77294922 82.3894043 C-17.77310028 83.49031906 -17.77325134 84.59123383 -17.77340698 85.72550964 C-17.78372955 86.91308365 -17.79405212 88.10065765 -17.8046875 89.32421875 C-17.8075174 90.54075638 -17.81034729 91.75729401 -17.81326294 93.01069641 C-17.82447397 96.90306358 -17.84958052 100.79520216 -17.875 104.6875 C-17.88502859 107.32356439 -17.89415465 109.95963238 -17.90234375 112.59570312 C-17.92441637 119.0638904 -17.95895279 125.53190642 -18 132 C-12.06 132 -6.12 132 0 132 C0 88.44 0 44.88 0 0 Z " fill="#42ABDD" transform="translate(269,171)"/>
<path d="M0 0 C0.495 0.99 0.495 0.99 1 2 C-0.14765943 4.5149518 -1.35967223 6.89346807 -2.6875 9.3125 C-3.08888184 10.05653076 -3.49026367 10.80056152 -3.90380859 11.56713867 C-10.33683421 23.40980946 -17.089779 35.0806875 -23.9375 46.6875 C-26.46105563 50.97938658 -28.72947061 55.34395199 -30.859375 59.84375 C-32.04696477 62.08878271 -33.42662321 64.01067303 -35 66 C-35.38929687 65.47792969 -35.77859375 64.95585937 -36.1796875 64.41796875 C-40.40119124 58.86387051 -44.92216225 53.69014334 -49.66796875 48.578125 C-56 41.57788945 -56 41.57788945 -56 39 C-62.11601408 42.24523196 -67.10776197 46.10776197 -72 51 C-71.44976705 47.26334338 -70.05497256 45.81553383 -67.1875 43.4375 C-66.15689453 42.56931641 -66.15689453 42.56931641 -65.10546875 41.68359375 C-64.06326172 40.85021484 -64.06326172 40.85021484 -63 40 C-62.00419922 39.12021484 -62.00419922 39.12021484 -60.98828125 38.22265625 C-59 37 -59 37 -57.06469727 37.2277832 C-54.61764454 38.14300465 -53.6477962 39.14097705 -51.9765625 41.1328125 C-51.15671875 42.09574219 -51.15671875 42.09574219 -50.3203125 43.078125 C-49.76085937 43.75359375 -49.20140625 44.4290625 -48.625 45.125 C-48.07328125 45.77726562 -47.5215625 46.42953125 -46.953125 47.1015625 C-44.72448324 49.73826543 -42.50582267 52.38190292 -40.31933594 55.05371094 C-39.52317871 56.01325684 -39.52317871 56.01325684 -38.7109375 56.9921875 C-38.2370459 57.57081543 -37.7631543 58.14944336 -37.27490234 58.74560547 C-36.06048474 60.23378348 -36.06048474 60.23378348 -34 60 C-29.82131912 52.7350345 -25.6765834 45.45901977 -21.68359375 38.08984375 C-17.83834674 31.03278949 -13.91458661 24.01875432 -10 17 C-9.56623047 16.22172852 -9.13246094 15.44345703 -8.68554688 14.64160156 C-7.43827571 12.40573161 -6.18840028 10.17134121 -4.9375 7.9375 C-4.55553467 7.25276611 -4.17356934 6.56803223 -3.7800293 5.86254883 C-1.11550357 1.11550357 -1.11550357 1.11550357 0 0 Z " fill="#C8CED8" transform="translate(82,125)"/>
<path d="M0 0 C0.66 0.33 1.32 0.66 2 1 C1.66226563 1.58007812 1.32453125 2.16015625 0.9765625 2.7578125 C-1.84939103 7.67983649 -1.84939103 7.67983649 -3.9375 12.9375 C-5.29744541 16.85734266 -7.37453306 20.12112557 -9.5625 23.6328125 C-10.82742178 25.71580869 -11.94750264 27.80392378 -13 30 C-13.66 30 -14.32 30 -15 30 C-15.33 31.65 -15.66 33.3 -16 35 C-16.66 35 -17.32 35 -18 35 C-18.33 36.32 -18.66 37.64 -19 39 C-19.99 39 -20.98 39 -22 39 C-22 39.66 -22 40.32 -22 41 C-26.66014732 40.37924679 -30.49820618 38.44141326 -34.625 36.3125 C-35.32633057 35.95526855 -36.02766113 35.59803711 -36.75024414 35.22998047 C-38.83794007 34.16167943 -40.91982672 33.0828646 -43 32 C-44.71123047 31.11248047 -44.71123047 31.11248047 -46.45703125 30.20703125 C-53.86167484 26.27665031 -53.86167484 26.27665031 -55 24 C-50.7067686 24.61830916 -47.43188523 26.1472073 -43.60546875 28.16015625 C-43.01325027 28.46948593 -42.4210318 28.77881561 -41.81086731 29.09751892 C-39.93325402 30.07996017 -38.06037579 31.07106248 -36.1875 32.0625 C-34.9098087 32.73300053 -33.63181682 33.4029286 -32.35351562 34.07226562 C-29.23217084 35.70823288 -26.11500977 37.35199595 -23 39 C-22.71640625 38.25468018 -22.4328125 37.50936035 -22.140625 36.74145508 C-21.1534356 34.36877748 -20.09592933 32.31572226 -18.75 30.13671875 C-18.31083252 29.42177246 -17.87166504 28.70682617 -17.41918945 27.97021484 C-16.95085693 27.21691895 -16.48252441 26.46362305 -16 25.6875 C-15.51813232 24.90584473 -15.03626465 24.12418945 -14.53979492 23.31884766 C-13.03156821 20.8760665 -11.51696158 18.43736523 -10 16 C-9.26064209 14.81156494 -9.26064209 14.81156494 -8.50634766 13.59912109 C-5.67994619 9.06038113 -2.84379297 4.52786126 0 0 Z " fill="#C8D5DF" transform="translate(351,111)"/>
<path d="M0 0 C4.72520559 3.43651316 8.22532293 7.59621009 12 12 C18.1936355 19.02448904 24.58597696 25.8529911 31.03515625 32.64257812 C31.66292969 33.30708984 32.29070313 33.97160156 32.9375 34.65625 C33.50339844 35.25244141 34.06929687 35.84863281 34.65234375 36.46289062 C36 38 36 38 37 40 C37.66 40 38.32 40 39 40 C40.32967768 38.11628996 41.562695 36.16404069 42.75 34.1875 C43.10416992 33.600896 43.45833984 33.01429199 43.82324219 32.40991211 C46.57836818 27.80954732 49.14991864 23.11838976 51.6796875 18.390625 C53.29629477 15.46351361 55.07854757 12.73437461 57 10 C58 13 58 13 56.8918457 15.43261719 C56.0423938 16.8504248 56.0423938 16.8504248 55.17578125 18.296875 C54.55896484 19.3384375 53.94214844 20.38 53.30664062 21.453125 C52.64857422 22.54109375 51.99050781 23.6290625 51.3125 24.75 C50.03767493 26.89057409 48.76293323 29.03119784 47.48828125 31.171875 C46.8845166 32.17798828 46.28075195 33.18410156 45.65869141 34.22070312 C43.72759245 37.45644503 41.85177542 40.71837267 40 44 C39.01 44 38.02 44 37 44 C34.984375 41.83984375 34.984375 41.83984375 32.75 38.9375 C29.57454686 34.91936998 26.35502652 31.22424974 22.67578125 27.671875 C20.87399703 25.87429075 19.22022744 23.99339698 17.5625 22.0625 C15.13406707 19.23658814 12.6098536 16.5961458 9.9375 14 C6.21499958 10.32829393 2.76260763 6.45784413 0 2 C0 1.34 0 0.68 0 0 Z " fill="#9FA8B0" transform="translate(12,176)"/>
<path d="M0 0 C4.75256526 0.41441664 8.308652 2.67503554 12.3125 5.0625 C12.95767578 5.43955078 13.60285156 5.81660156 14.26757812 6.20507812 C15.84878152 7.13037493 17.4249146 8.06432681 19 9 C18.38190708 12.32876548 17.20219016 14.36154068 15.1875 17.0625 C10.98910675 22.88299973 7.2129947 28.9440636 3.44018555 35.04711914 C0.20497875 40.23747657 -3.24707903 45.17042818 -7 50 C-7.33 49.34 -7.66 48.68 -8 48 C-6.88061523 45.87963867 -6.88061523 45.87963867 -5.12109375 43.23046875 C-4.47253418 42.24353027 -3.82397461 41.2565918 -3.15576172 40.23974609 C-2.44436035 39.17062988 -1.73295898 38.10151367 -1 37 C0.09529764 35.31956018 1.19056677 33.63910057 2.28378296 31.95730591 C4.16167316 29.07132995 6.05036753 26.19243698 7.9375 23.3125 C8.72467336 22.11006793 9.51178308 20.90759419 10.29882812 19.70507812 C12.19848834 16.80290669 14.09899831 13.90129296 16 11 C12.73465961 8.47706247 9.46294333 6.62861359 5.75 4.8125 C4.67234375 4.28269531 3.5946875 3.75289063 2.484375 3.20703125 C1.66453125 2.80871094 0.8446875 2.41039063 0 2 C-0.268125 2.71671875 -0.53625 3.4334375 -0.8125 4.171875 C-2.01283981 7.03057903 -3.40806482 9.59146825 -5 12.25 C-5.515625 13.12140625 -6.03125 13.9928125 -6.5625 14.890625 C-8 17 -8 17 -10 18 C-8.5216233 13.98832453 -6.60821705 10.42979591 -4.4375 6.75 C-3.81746094 5.69296875 -3.19742187 4.6359375 -2.55859375 3.546875 C-1 1 -1 1 0 0 Z " fill="#A3ACBE" transform="translate(363,92)"/>
<path d="M0 0 C0.33 29.04 0.66 58.08 1 88 C3.31 88.99 5.62 89.98 8 91 C11.8078906 93.27008863 14.59094061 95.25257429 17 99 C14.36349363 98.51175808 12.78311281 97.85902333 10.5 96.375 C8.13046851 94.74889028 8.13046851 94.74889028 5.6875 95.3125 C5.130625 95.539375 4.57375 95.76625 4 96 C4.33 94.35 4.66 92.7 5 91 C3.02 90.34 1.04 89.68 -1 89 C-1 59.96 -1 30.92 -1 1 C-3.97 1 -6.94 1 -10 1 C-10 0.67 -10 0.34 -10 0 C-3.375 -1.125 -3.375 -1.125 0 0 Z " fill="#44B2DE" transform="translate(270,20)"/>
<path d="M0 0 C3 1 3 1 4.55883789 3.79370117 C5.12429144 5.03858668 5.67805954 6.2888188 6.22265625 7.54296875 C6.524599 8.21518463 6.82654175 8.88740051 7.13763428 9.57998657 C8.12242193 11.77824872 9.09238808 13.98272724 10.0625 16.1875 C10.73485931 17.69472872 11.40828476 19.20148228 12.08276367 20.70776367 C13.43051515 23.72066724 14.77313243 26.73577012 16.11132812 29.75292969 C18.64306372 35.45556978 21.22545252 41.13475382 23.8125 46.8125 C24.21412354 47.69897217 24.61574707 48.58544434 25.02954102 49.4987793 C25.39748779 50.31000244 25.76543457 51.12122559 26.14453125 51.95703125 C26.45753174 52.64772705 26.77053223 53.33842285 27.09301758 54.05004883 C27.98155514 56.04224171 27.98155514 56.04224171 29.1784668 58.00268555 C30.1773954 60.43128433 29.86753173 61.57091117 29 64 C27.06139979 59.83384455 25.1241107 55.66708055 23.1875 51.5 C22.89576904 50.87240784 22.60403809 50.24481567 22.3034668 49.59820557 C17.72605718 39.74850021 13.18202762 29.88413309 8.69213867 19.99414062 C6.22881507 14.59103037 3.65478686 9.27096839 0.91796875 4.00048828 C0 2 0 2 0 0 Z " fill="#A4B1C4" transform="translate(100,152)"/>
<path d="M0 0 C0.66 0.33 1.32 0.66 2 1 C1.505 1.78375 1.01 2.5675 0.5 3.375 C-1.16537965 5.78552327 -1.16537965 5.78552327 -1 8 C-2.32 8 -3.64 8 -5 8 C-7.20067421 8.93283296 -7.20067421 8.93283296 -9 10 C-9 11.98 -9 13.96 -9 16 C-10.11375 16.2475 -11.2275 16.495 -12.375 16.75 C-15.95733621 17.589469 -15.95733621 17.589469 -17.1875 19.6875 C-18.20046056 22.5705416 -18.42629837 25.20324171 -18.625 28.25 C-18.69976562 29.32765625 -18.77453125 30.4053125 -18.8515625 31.515625 C-18.90054688 32.33546875 -18.94953125 33.1553125 -19 34 C-19.66 34 -20.32 34 -21 34 C-21.89550808 24.64691556 -20.33496315 17.81408042 -15 10 C-11.89924075 6.80598483 -8.40796211 5.51858378 -4 5 C-3.896875 4.360625 -3.79375 3.72125 -3.6875 3.0625 C-3.460625 2.381875 -3.23375 1.70125 -3 1 C-2.01 0.67 -1.02 0.34 0 0 Z " fill="#22C3F9" transform="translate(248,110)"/>
<path d="M0 0 C-1.08073852 2.16147703 -2.19363264 3.41039672 -4 5 C-4.66 5 -5.32 5 -6 5 C-6.22816406 5.53753906 -6.45632812 6.07507813 -6.69140625 6.62890625 C-8.40134664 9.72721616 -10.6286828 12.27889839 -12.9375 14.9375 C-13.92763544 16.08546153 -14.91720141 17.23391444 -15.90625 18.3828125 C-16.41542969 18.97352539 -16.92460937 19.56423828 -17.44921875 20.17285156 C-19.0059879 22.00705502 -20.52267206 23.86822022 -22.03125 25.7421875 C-22.51859619 26.34039307 -23.00594238 26.93859863 -23.50805664 27.55493164 C-24.44603999 28.70822662 -25.37526916 29.86870859 -26.29467773 31.03686523 C-27.58984375 32.61328125 -27.58984375 32.61328125 -30 35 C-34 35 -34 35 -36.140625 33.25 C-36.83671875 32.5075 -37.5328125 31.765 -38.25 31 C-38.95640625 30.2575 -39.6628125 29.515 -40.390625 28.75 C-40.92171875 28.1725 -41.4528125 27.595 -42 27 C-41.67 26.34 -41.34 25.68 -41 25 C-38.36 27.31 -35.72 29.62 -33 32 C-29.28356399 30.14178199 -27.91772234 29.08281017 -25.3125 26.0625 C-24.61640625 25.258125 -23.9203125 24.45375 -23.203125 23.625 C-20.96419922 20.95734376 -18.75865059 18.26545458 -16.5625 15.5625 C-13.46834969 11.76586496 -10.34297298 8.00508488 -7.125 4.3125 C-6.40570313 3.48363281 -5.68640625 2.65476563 -4.9453125 1.80078125 C-3 0 -3 0 0 0 Z " fill="#C0CDDA" transform="translate(229,144)"/>
<path d="M0 0 C0.33 0.66 0.66 1.32 1 2 C-0.14766481 4.51496358 -1.35968721 6.89344662 -2.6875 9.3125 C-3.2906604 10.43072144 -3.2906604 10.43072144 -3.90600586 11.5715332 C-8.65383262 20.31289271 -13.6188193 28.93326936 -18.58837891 37.54980469 C-20.65205029 41.13178428 -22.70128022 44.72195534 -24.75 48.3125 C-25.83333333 50.20833333 -26.91666667 52.10416667 -28 54 C-29 51 -29 51 -28.18652344 48.94140625 C-27.74856445 48.15636719 -27.31060547 47.37132812 -26.859375 46.5625 C-26.37098145 45.6765918 -25.88258789 44.79068359 -25.37939453 43.87792969 C-24.84169434 42.92821289 -24.30399414 41.97849609 -23.75 41 C-23.20585449 40.02192383 -22.66170898 39.04384766 -22.10107422 38.03613281 C-14.95142896 25.2350603 -7.62909274 12.52201298 0 0 Z " fill="#96A2B4" transform="translate(82,125)"/>
<path d="M0 0 C0.66 0.66 1.32 1.32 2 2 C1.31035156 2.73863281 0.62070313 3.47726563 -0.08984375 4.23828125 C-5.52219288 10.09082283 -10.7304158 16.03767578 -15.734375 22.265625 C-18.92222703 26.11303263 -22.31788201 29.75381643 -25.73828125 33.39453125 C-28.12786962 36.14730404 -30.04232461 38.93133263 -32 42 C-32.495 40.515 -32.495 40.515 -33 39 C-31.36690079 36.76912486 -29.72539335 34.78936969 -27.875 32.75 C-27.33456055 32.13737305 -26.79412109 31.52474609 -26.23730469 30.89355469 C-25.08689013 29.58966331 -23.93246216 28.28930391 -22.77441406 26.9921875 C-19.90422575 23.76974163 -17.0771269 20.51021159 -14.25 17.25 C-13.70754639 16.62633545 -13.16509277 16.0026709 -12.60620117 15.36010742 C-8.2619847 10.34867013 -4.07575135 5.23321548 0 0 Z " fill="#ACCAE4" transform="translate(235,160)"/>
<path d="M0 0 C2.31 0.33 4.62 0.66 7 1 C8.01667485 4.05002456 8.13256433 6.13312421 8.14526367 9.32592773 C8.15164352 10.41393173 8.15802338 11.50193573 8.16459656 12.62290955 C8.16570938 13.79793533 8.1668222 14.97296112 8.16796875 16.18359375 C8.17129715 17.39064468 8.17462555 18.59769562 8.17805481 19.84132385 C8.18312102 22.395921 8.18546323 24.95052478 8.18530273 27.50512695 C8.18748924 31.41824209 8.20564858 35.33107539 8.22460938 39.24414062 C8.22754331 41.72395737 8.22952811 44.20377545 8.23046875 46.68359375 C8.23765427 47.85659531 8.24483978 49.02959686 8.25224304 50.23814392 C8.24916641 51.32930008 8.24608978 52.42045624 8.24291992 53.54467773 C8.24434494 54.50381577 8.24576996 55.4629538 8.24723816 56.45115662 C8 59 8 59 6 63 C6 43.53 6 24.06 6 4 C3.525 3.01 3.525 3.01 1 2 C0.67 1.34 0.34 0.68 0 0 Z " fill="#68BEEB" transform="translate(243,166)"/>
<path d="M0 0 C0.66 0.33 1.32 0.66 2 1 C1.49339844 1.87011719 1.49339844 1.87011719 0.9765625 2.7578125 C-1.84939103 7.67983649 -1.84939103 7.67983649 -3.9375 12.9375 C-5.29744541 16.85734266 -7.37453306 20.12112557 -9.5625 23.6328125 C-10.82742178 25.71580869 -11.94750264 27.80392378 -13 30 C-13.66 30 -14.32 30 -15 30 C-15.495 32.475 -15.495 32.475 -16 35 C-16.66 35 -17.32 35 -18 35 C-18.33 36.32 -18.66 37.64 -19 39 C-19.66 39 -20.32 39 -21 39 C-19.71989506 35.55813345 -18.23263609 32.59591222 -16.21484375 29.53125 C-15.68439453 28.71269531 -15.15394531 27.89414063 -14.60742188 27.05078125 C-13.49296727 25.34846813 -12.37577114 23.6479467 -11.25585938 21.94921875 C-10.46211914 20.72138672 -10.46211914 20.72138672 -9.65234375 19.46875 C-9.16757568 18.73076172 -8.68280762 17.99277344 -8.18334961 17.23242188 C-6.89710862 14.80589256 -6.47586595 12.69043055 -6 10 C-4.58984375 7.32421875 -4.58984375 7.32421875 -2.9375 4.6875 C-2.38964844 3.80449219 -1.84179688 2.92148438 -1.27734375 2.01171875 C-0.85582031 1.34785156 -0.43429687 0.68398437 0 0 Z " fill="#EAF4F9" transform="translate(351,111)"/>
<path d="M0 0 C0.33 0 0.66 0 1 0 C1 8.58 1 17.16 1 26 C-0.98 26.99 -2.96 27.98 -5 29 C-5.33 29.99 -5.66 30.98 -6 32 C-8.9375 33.75 -8.9375 33.75 -12 35 C-12.66 34.67 -13.32 34.34 -14 34 C-12.77864002 32.86652945 -11.54750819 31.74358413 -10.3125 30.625 C-9.62800781 29.99851562 -8.94351563 29.37203125 -8.23828125 28.7265625 C-5.8988103 26.92194442 -3.74764028 26.03857221 -1 25 C-1.00523682 24.27820557 -1.01047363 23.55641113 -1.01586914 22.81274414 C-1.03657358 19.56267151 -1.04963918 16.31261272 -1.0625 13.0625 C-1.07087891 11.92619141 -1.07925781 10.78988281 -1.08789062 9.61914062 C-1.09111328 8.53955078 -1.09433594 7.45996094 -1.09765625 6.34765625 C-1.10289307 5.34742432 -1.10812988 4.34719238 -1.11352539 3.31665039 C-1 1 -1 1 0 0 Z " fill="#4BB8E3" transform="translate(250,83)"/>
<path d="M0 0 C3.71268094 1.54127351 5.98115698 3.80843234 8.75 6.6875 C12.99215162 11.01724767 17.31910378 15.14694787 22 19 C22.67804688 19.57492188 23.35609375 20.14984375 24.0546875 20.7421875 C25.01761719 21.36480469 25.01761719 21.36480469 26 22 C28.73398135 21.29042763 28.73398135 21.29042763 31 20 C30.67 21.32 30.34 22.64 30 24 C28.38671875 24.8046875 28.38671875 24.8046875 26 25 C23.73404168 23.45296019 21.83311492 21.94940428 19.8125 20.125 C19.24096191 19.62629395 18.66942383 19.12758789 18.08056641 18.61376953 C13.79023849 14.828894 9.73046044 10.84248824 5.8046875 6.6796875 C4.00401613 4.77086113 4.00401613 4.77086113 1 4 C0.34 4.66 -0.32 5.32 -1 6 C-1.33 5.34 -1.66 4.68 -2 4 C-1.0625 1.875 -1.0625 1.875 0 0 Z " fill="#95A0AC" transform="translate(171,180)"/>
<path d="M0 0 C0.66 0.66 1.32 1.32 2 2 C-0.97 8.27 -3.94 14.54 -7 21 C-12 20 -12 20 -13.6171875 17.8203125 C-14.03226562 16.93085938 -14.44734375 16.04140625 -14.875 15.125 C-15.30554688 14.24070313 -15.73609375 13.35640625 -16.1796875 12.4453125 C-17 10 -17 10 -16 7 C-14.99466333 8.62170379 -13.99588093 10.24747237 -13 11.875 C-12.443125 12.77992188 -11.88625 13.68484375 -11.3125 14.6171875 C-10 17 -10 17 -10 19 C-9.34 19 -8.68 19 -8 19 C-7.73445312 18.15179688 -7.46890625 17.30359375 -7.1953125 16.4296875 C-5.95559534 12.87259054 -4.47517384 9.53406601 -2.875 6.125 C-2.33617187 4.97257813 -1.79734375 3.82015625 -1.2421875 2.6328125 C-0.83226562 1.76398438 -0.42234375 0.89515625 0 0 Z " fill="#B3BFCC" transform="translate(141,239)"/>
<path d="M0 0 C2.79570197 3.30641934 4.89145109 6.46120989 6.7265625 10.37890625 C7.438125 11.88420898 7.438125 11.88420898 8.1640625 13.41992188 C8.64617187 14.45697266 9.12828125 15.49402344 9.625 16.5625 C10.59622876 18.62636111 11.56757809 20.69016547 12.5390625 22.75390625 C12.96396973 23.66470947 13.38887695 24.5755127 13.82666016 25.51391602 C14.94875514 27.97270547 14.94875514 27.97270547 16.21630859 30.14038086 C17 32 17 32 16 35 C11.47853558 26.62350015 7.00270556 18.23449018 2.9375 9.625 C2.63900146 9.00165771 2.34050293 8.37831543 2.03295898 7.73608398 C0.73849846 4.95208608 0 3.11255356 0 0 Z " fill="#8492A2" transform="translate(107,210)"/>
<path d="M0 0 C3.91083696 2.84424506 6.92000669 6.06850128 10.0390625 9.71875 C12.19401948 12.2257119 14.40457533 14.67589371 16.625 17.125 C19.83849293 20.6845614 22.96884701 24.28439311 26 28 C23 28 23 28 20.65234375 25.76171875 C19.73887967 24.74456324 18.83447122 23.71922893 17.9375 22.6875 C16.95858895 21.58571033 15.97941624 20.48415311 15 19.3828125 C14.50371094 18.81981445 14.00742187 18.25681641 13.49609375 17.67675781 C12.06272761 16.07030242 10.60240983 14.49561983 9.125 12.9296875 C8.238125 11.98351562 7.35125 11.03734375 6.4375 10.0625 C5.63183594 9.20785156 4.82617188 8.35320312 3.99609375 7.47265625 C2.02524047 5.03126657 0.98007503 2.9614159 0 0 Z " fill="#B4BCC6" transform="translate(12,176)"/>
<path d="M0 0 C3.70485817 0.46630111 6.51589772 1.60882136 9.75 3.4375 C10.52859375 3.86933594 11.3071875 4.30117187 12.109375 4.74609375 C14 6 14 6 15 8 C11.14974121 7.39644592 8.13898841 6.23227397 4.6875 4.4375 C3.80449219 3.98246094 2.92148437 3.52742188 2.01171875 3.05859375 C1.34785156 2.70925781 0.68398438 2.35992187 0 2 C-0.268125 2.71671875 -0.53625 3.4334375 -0.8125 4.171875 C-2.01283981 7.03057903 -3.40806482 9.59146825 -5 12.25 C-5.515625 13.12140625 -6.03125 13.9928125 -6.5625 14.890625 C-8 17 -8 17 -10 18 C-8.5216233 13.98832453 -6.60821705 10.42979591 -4.4375 6.75 C-3.81746094 5.69296875 -3.19742187 4.6359375 -2.55859375 3.546875 C-1 1 -1 1 0 0 Z " fill="#7D8E9C" transform="translate(363,92)"/>
<path d="M0 0 C0.99 0.33 1.98 0.66 3 1 C3 3.31 3 5.62 3 8 C2.01 7.01 1.02 6.02 0 5 C-0.44730469 5.90621094 -0.89460938 6.81242188 -1.35546875 7.74609375 C-4.74749339 14.59032867 -8.19534573 21.37253772 -12 28 C-12.66 27.67 -13.32 27.34 -14 27 C-12.63358421 23.40252773 -11.0328614 20.07041808 -9.1796875 16.69921875 C-8.64472656 15.72275391 -8.10976562 14.74628906 -7.55859375 13.74023438 C-7.00300781 12.73283203 -6.44742188 11.72542969 -5.875 10.6875 C-5.31167969 9.66076172 -4.74835938 8.63402344 -4.16796875 7.57617188 C-2.78117107 5.04937949 -1.39177165 2.52405506 0 0 Z " fill="#ACBACC" transform="translate(83,159)"/>
<path d="M0 0 C1.10336858 3.31010574 1.13531135 5.6813976 0 9 C-2 10.125 -2 10.125 -4 11 C-5.0541518 14.16245541 -5.31275672 16.86948218 -5.5625 20.1875 C-5.64628906 21.27417969 -5.73007813 22.36085937 -5.81640625 23.48046875 C-5.87699219 24.31191406 -5.93757812 25.14335937 -6 26 C-6.66 26 -7.32 26 -8 26 C-8.90589298 16.53845108 -7.05458283 10.04019134 -2 2 C-1.34 1.34 -0.68 0.68 0 0 Z " fill="#48BDE8" transform="translate(235,118)"/>
<path d="M0 0 C3 1 3 1 4.27441406 3.06958008 C5.61185137 5.97884822 6.94543996 8.8882955 8.25 11.8125 C8.72179687 12.82376953 9.19359375 13.83503906 9.6796875 14.87695312 C10.12054688 15.85212891 10.56140625 16.82730469 11.015625 17.83203125 C11.42071289 18.72639893 11.82580078 19.6207666 12.24316406 20.54223633 C13.06214181 23.20180052 12.95686932 24.42850729 12 27 C9.99370826 22.87803094 7.99603779 18.75194299 6 14.625 C5.42765625 13.449375 4.8553125 12.27375 4.265625 11.0625 C3.72421875 9.94101563 3.1828125 8.81953125 2.625 7.6640625 C2.12226562 6.62717285 1.61953125 5.5902832 1.1015625 4.52197266 C0 2 0 2 0 0 Z " fill="#8899AA" transform="translate(100,152)"/>
<path d="M0 0 C3.01708345 1.50854172 3.64457302 3.89269057 5.125 6.875 C5.66382813 7.94492188 6.20265625 9.01484375 6.7578125 10.1171875 C8 13 8 13 8 16 C5 18 5 18 2 18 C1.67 17.01 1.34 16.02 1 15 C1.66 15 2.32 15 3 15 C3.33 13.02 3.66 11.04 4 9 C3.34 9 2.68 9 2 9 C1.34 7.35 0.68 5.7 0 4 C-0.66 4 -1.32 4 -2 4 C-1.34 2.68 -0.68 1.36 0 0 Z " fill="#EDFAFD" transform="translate(227,145)"/>
<path d="M0 0 C0.33 0 0.66 0 1 0 C1.88260414 5.58982622 -0.37605394 8.6742652 -3.265625 13.1875 C-6.19670916 17.94060945 -8.56698696 22.97867522 -11 28 C-12.18556017 24.44331948 -11.81767642 23.99680957 -10.234375 20.76171875 C-9.83863281 19.94123047 -9.44289062 19.12074219 -9.03515625 18.27539062 C-8.61105469 17.42138672 -8.18695313 16.56738281 -7.75 15.6875 C-7.34136719 14.84509766 -6.93273437 14.00269531 -6.51171875 13.13476562 C-4.37446619 8.73999709 -2.19401933 4.36666835 0 0 Z " fill="#93A0AE" transform="translate(149,183)"/>
<path d="M0 0 C2 4 2 4 2.25 6.125 C2.4975 6.74375 2.745 7.3625 3 8 C4.98982813 8.69643985 6.99294757 9.354876 9 10 C12.09038915 11.87235304 15.04972682 13.91514029 18 16 C17.67 16.66 17.34 17.32 17 18 C15.96359375 17.3503125 14.9271875 16.700625 13.859375 16.03125 C12.48987009 15.18703464 11.12006248 14.34331018 9.75 13.5 C9.06808594 13.07074219 8.38617188 12.64148438 7.68359375 12.19921875 C7.01972656 11.79316406 6.35585938 11.38710937 5.671875 10.96875 C4.76066895 10.40317383 4.76066895 10.40317383 3.83105469 9.82617188 C1.72712733 8.72581727 1.72712733 8.72581727 -2 9 C-1.34 6.03 -0.68 3.06 0 0 Z " fill="#BEDEED" transform="translate(292,145)"/>
<path d="M0 0 C0.66 0 1.32 0 2 0 C-0.01102819 5.37143733 -2.93452717 9.9276642 -6 14.75 C-6.5465625 15.62527344 -7.093125 16.50054687 -7.65625 17.40234375 C-8.1821875 18.23378906 -8.708125 19.06523437 -9.25 19.921875 C-9.72953125 20.68081055 -10.2090625 21.43974609 -10.703125 22.22167969 C-12 24 -12 24 -14 25 C-12.51752167 19.63443924 -9.98470914 15.43879916 -7 10.8125 C-6.32324219 9.74612305 -6.32324219 9.74612305 -5.6328125 8.65820312 C-3.78424888 5.75136418 -1.91093639 2.86640459 0 0 Z " fill="#A9B3C4" transform="translate(343,124)"/>
<path d="M0 0 C0.66 0 1.32 0 2 0 C0.32073668 4.36778087 -1.63305917 8.58165008 -3.625 12.8125 C-3.94984375 13.50537109 -4.2746875 14.19824219 -4.609375 14.91210938 C-5.40499885 16.60866023 -6.20232699 18.30441165 -7 20 C-7.33 20 -7.66 20 -8 20 C-7.75373125 12.36566875 -5.56455874 5.56455874 0 0 Z " fill="#E9F4F9" transform="translate(162,195)"/>
<path d="M0 0 C2.80922178 1.40461089 4.19145367 3.48095333 6 6 C5.67 6.66 5.34 7.32 5 8 C3.62437146 6.71034824 2.29233607 5.37310707 1 4 C1 3.34 1 2.68 1 2 C-5.11601408 5.24523196 -10.10776197 9.10776197 -15 14 C-14.44976705 10.26334338 -13.05497256 8.81553383 -10.1875 6.4375 C-9.15689453 5.56931641 -9.15689453 5.56931641 -8.10546875 4.68359375 C-7.41066406 4.12800781 -6.71585938 3.57242188 -6 3 C-5.29488281 2.43410156 -4.58976562 1.86820313 -3.86328125 1.28515625 C-2 0 -2 0 0 0 Z " fill="#A9B8C9" transform="translate(25,162)"/>
<path d="M0 0 C2.44632516 2.19684157 3.6882391 4.15817636 4.9375 7.1875 C6.26491629 10.34139995 7.69602404 13.35943622 9.3125 16.375 C11 20 11 20 10 23 C7.09543684 19.49664997 5.21844853 15.5983862 3.3125 11.5 C2.99216797 10.83613281 2.67183594 10.17226562 2.34179688 9.48828125 C0.71718505 6.01736216 0 3.8999004 0 0 Z " fill="#99A7B5" transform="translate(86,165)"/>
<path d="M0 0 C0.66 0 1.32 0 2 0 C2.33 1.32 2.66 2.64 3 4 C2.34 4 1.68 4 1 4 C0.95875 4.680625 0.9175 5.36125 0.875 6.0625 C-0.37387681 10.25515787 -3.04026731 12.8592439 -6 16 C-6.93423645 12.98968256 -7.04449911 12.13349732 -6 9 C-5.34 9 -4.68 9 -4 9 C-4 8.34 -4 7.68 -4 7 C-2.68 7 -1.36 7 0 7 C-0.2784375 5.824375 -0.2784375 5.824375 -0.5625 4.625 C-1 2 -1 2 0 0 Z " fill="#30AFF0" transform="translate(289,148)"/>
<path d="M0 0 C1 3 1 3 0.22729492 4.90112305 C-0.18415771 5.59761963 -0.59561035 6.29411621 -1.01953125 7.01171875 C-1.46490234 7.76904297 -1.91027344 8.52636719 -2.36914062 9.30664062 C-2.84544922 10.09232422 -3.32175781 10.87800781 -3.8125 11.6875 C-4.27720703 12.48478516 -4.74191406 13.28207031 -5.22070312 14.10351562 C-7.81766935 18.45911608 -7.81766935 18.45911608 -9 20 C-9.66 20 -10.32 20 -11 20 C-9.56952311 14.89115395 -7.28610306 10.98255739 -4.375 6.625 C-3.95476562 5.98433594 -3.53453125 5.34367188 -3.1015625 4.68359375 C-2.07370232 3.11844302 -1.03768114 1.55865686 0 0 Z " fill="#8897A2" transform="translate(69,186)"/>
<path d="M0 0 C0.66 0.66 1.32 1.32 2 2 C1.01 2.495 1.01 2.495 0 3 C0 2.01 0 1.02 0 0 Z M-1 3 C-0.34 3.99 0.32 4.98 1 6 C0 9 0 9 -1.5625 11 C-3.29181802 12.99550643 -3.29181802 12.99550643 -3 16 C-4.32 16 -5.64 16 -7 16 C-5.58707905 11.1725201 -3.57025846 7.2837641 -1 3 Z " fill="#EFF4F8" transform="translate(159,167)"/>
<path d="M0 0 C0.33 1.32 0.66 2.64 1 4 C1.66 4.33 2.32 4.66 3 5 C3 6.32 3 7.64 3 9 C3.69867188 8.97679687 4.39734375 8.95359375 5.1171875 8.9296875 C6.02726562 8.91164063 6.93734375 8.89359375 7.875 8.875 C9.23238281 8.84019531 9.23238281 8.84019531 10.6171875 8.8046875 C13 9 13 9 15 11 C10.05 11 5.1 11 0 11 C0 7.37 0 3.74 0 0 Z " fill="#1BAAFC" transform="translate(251,292)"/>
<path d="M0 0 C5.43261068 0.63913067 9.38223392 3.0586807 12.875 7.25 C13.24625 7.8275 13.6175 8.405 14 9 C11.36349363 8.51175808 9.78311281 7.85902333 7.5 6.375 C5.13046851 4.74889028 5.13046851 4.74889028 2.6875 5.3125 C2.130625 5.539375 1.57375 5.76625 1 6 C1.33 4.35 1.66 2.7 2 1 C1.34 0.67 0.68 0.34 0 0 Z " fill="#4BC3ED" transform="translate(273,110)"/>
<path d="M0 0 C1.98 0.99 1.98 0.99 4 2 C4 2.66 4 3.32 4 4 C4.66 4.33 5.32 4.66 6 5 C5.67 5.99 5.34 6.98 5 8 C4.01 8 3.02 8 2 8 C1.67 9.65 1.34 11.3 1 13 C0.67 13 0.34 13 0 13 C0 8.71 0 4.42 0 0 Z " fill="#CFF6FC" transform="translate(293,132)"/>
<path d="M0 0 C3.46835503 3.31070253 5.20580549 5.86676312 5.625 10.6875 C5.69976562 11.49574219 5.77453125 12.30398437 5.8515625 13.13671875 C5.92503906 14.05904297 5.92503906 14.05904297 6 15 C2.17354053 12.32147837 1.53180354 9.65189384 0.75 5.25 C0.48463689 3.50226363 0.22967506 1.75278332 0 0 Z " fill="#BDCDDA" transform="translate(96,143)"/>
<path d="M0 0 C2.65171248 2.37094293 4.1490052 4.83568087 5.75 8 C6.19859375 8.86625 6.6471875 9.7325 7.109375 10.625 C8 13 8 13 7 16 C5.82845707 13.71070947 4.66261926 11.41881638 3.5 9.125 C3.16613281 8.47402344 2.83226563 7.82304687 2.48828125 7.15234375 C0 2.2265625 0 2.2265625 0 0 Z " fill="#7B8C9D" transform="translate(116,229)"/>
<path d="M0 0 C0.66 0.66 1.32 1.32 2 2 C0.02 5.63 -1.96 9.26 -4 13 C-4.99 12.01 -5.98 11.02 -7 10 C-7 9.34 -7 8.68 -7 8 C-6.01 7.67 -5.02 7.34 -4 7 C-2.77554716 5.37051936 -2.77554716 5.37051936 -1.8125 3.4375 C-1.214375 2.303125 -0.61625 1.16875 0 0 Z " fill="#BDC5CD" transform="translate(52,178)"/>
<path d="M0 0 C1.1055189 0.93590504 2.20935453 1.87379858 3.3125 2.8125 C3.92738281 3.33457031 4.54226562 3.85664063 5.17578125 4.39453125 C6.85424679 5.87172469 8.43882034 7.40039131 10 9 C9.67 9.66 9.34 10.32 9 11 C7.70450101 9.90033225 6.41373929 8.79508199 5.125 7.6875 C4.40570313 7.07261719 3.68640625 6.45773438 2.9453125 5.82421875 C1 4 1 4 -1 1 C-0.67 0.67 -0.34 0.34 0 0 Z " fill="#8D9AAD" transform="translate(177,159)"/>
<path d="M0 0 C0.66 0.66 1.32 1.32 2 2 C1.31164062 2.65355469 1.31164062 2.65355469 0.609375 3.3203125 C-3.16354586 6.9822651 -6.2623152 10.51019692 -9 15 C-9.33 14.01 -9.66 13.02 -10 12 C-8.42128179 9.79569625 -6.85238363 7.83057597 -5.0625 5.8125 C-4.34030273 4.97428711 -4.34030273 4.97428711 -3.60351562 4.11914062 C-2.41142402 2.73820283 -1.20685625 1.36805321 0 0 Z " fill="#C0D1DB" transform="translate(212,187)"/>
<path d="M0 0 C0.66 0 1.32 0 2 0 C0.42219077 3.71045247 -1.90703248 6.29906384 -4.625 9.25 C-5.44226563 10.14203125 -6.25953125 11.0340625 -7.1015625 11.953125 C-7.72804687 12.62859375 -8.35453125 13.3040625 -9 14 C-9 9.85326976 -7.24222063 8.47050281 -4.625 5.3125 C-3.81289062 4.31863281 -3.00078125 3.32476562 -2.1640625 2.30078125 C-1.44992188 1.54152344 -0.73578125 0.78226563 0 0 Z " fill="#B1C5D7" transform="translate(223,174)"/>
<path d="M0 0 C-1.08073852 2.16147703 -2.19363264 3.41039672 -4 5 C-4.66 5 -5.32 5 -6 5 C-6.2475 5.598125 -6.495 6.19625 -6.75 6.8125 C-8.16370012 9.28647521 -9.65055383 10.43370255 -12 12 C-10.51657119 6.56076104 -5.97265869 0 0 0 Z " fill="#A3C3D3" transform="translate(229,144)"/>
<path d="M0 0 C3.33511388 2.9901021 5.21521119 5.89498574 7 10 C7 10.66 7 11.32 7 12 C4 11 4 11 2.83203125 9.2578125 C2.49558594 8.55398437 2.15914063 7.85015625 1.8125 7.125 C1.46832031 6.42632812 1.12414062 5.72765625 0.76953125 5.0078125 C0 3 0 3 0 0 Z " fill="#82939E" transform="translate(124,246)"/>
<path d="M0 0 C4.69564393 3.31457218 7.72469104 7.36279281 11 12 C8.14820529 11.64037102 7.10604616 11.11014144 5.078125 9.00390625 C4.47484375 8.19824219 3.8715625 7.39257812 3.25 6.5625 C2.63640625 5.75941406 2.0228125 4.95632812 1.390625 4.12890625 C0 2 0 2 0 0 Z " fill="#A4AFBD" transform="translate(12,176)"/>
<path d="M0 0 C0.97591583 3.38317487 0.85856655 5.5657338 0 9 C-1.32 9.33 -2.64 9.66 -4 10 C-4.33 9.01 -4.66 8.02 -5 7 C-4.00390625 5.17578125 -4.00390625 5.17578125 -2.5625 3.3125 C-2.08941406 2.68988281 -1.61632812 2.06726563 -1.12890625 1.42578125 C-0.75636719 0.95527344 -0.38382813 0.48476562 0 0 Z " fill="#3BC2EE" transform="translate(235,118)"/>
<path d="M0 0 C0.57234375 0.23589844 1.1446875 0.47179687 1.734375 0.71484375 C0.744375 1.04484375 -0.245625 1.37484375 -1.265625 1.71484375 C-1.595625 2.70484375 -1.925625 3.69484375 -2.265625 4.71484375 C-5.203125 6.46484375 -5.203125 6.46484375 -8.265625 7.71484375 C-8.925625 7.38484375 -9.585625 7.05484375 -10.265625 6.71484375 C-9.03009224 5.51229851 -7.77660161 4.32818143 -6.515625 3.15234375 C-5.81953125 2.49105469 -5.1234375 1.82976562 -4.40625 1.1484375 C-2.265625 -0.28515625 -2.265625 -0.28515625 0 0 Z " fill="#48C2EB" transform="translate(246.265625,110.28515625)"/>
<path d="M0 0 C0.66 0 1.32 0 2 0 C0.43358249 4.30764815 -1.68336156 8.06171464 -4 12 C-4.9435441 9.46100862 -5.16906025 8.39090725 -4.07421875 5.859375 C-3.61660156 5.16328125 -3.15898438 4.4671875 -2.6875 3.75 C-2.23761719 3.04359375 -1.78773437 2.3371875 -1.32421875 1.609375 C-0.88722656 1.07828125 -0.45023438 0.5471875 0 0 Z " fill="#9AA3A9" transform="translate(57,206)"/>
<path d="M0 0 C3.36591866 1.44253657 5.51047079 3.33264727 8 6 C7.67 6.66 7.34 7.32 7 8 C5.35 6.68 3.7 5.36 2 4 C1.01 4.66 0.02 5.32 -1 6 C-1.33 5.34 -1.66 4.68 -2 4 C-1.0625 1.875 -1.0625 1.875 0 0 Z " fill="#ACB7C1" transform="translate(171,180)"/>
<path d="M0 0 C0.66 0.33 1.32 0.66 2 1 C0.68 2.65 -0.64 4.3 -2 6 C-2.66 5.34 -3.32 4.68 -4 4 C-2.68 2.68 -1.36 1.36 0 0 Z M-6 5 C-5.34 5.33 -4.68 5.66 -4 6 C-4.33 6.99 -4.66 7.98 -5 9 C-5.66 9 -6.32 9 -7 9 C-7.33 9.66 -7.66 10.32 -8 11 C-7.125 6.125 -7.125 6.125 -6 5 Z " fill="#EAF0F4" transform="translate(19,167)"/>
<path d="M0 0 C0.66 0.66 1.32 1.32 2 2 C-0.64 4.97 -3.28 7.94 -6 11 C-6.66 10.67 -7.32 10.34 -8 10 C-5.36 6.7 -2.72 3.4 0 0 Z " fill="#CBD9E3" transform="translate(216,155)"/>
<path d="M0 0 C1.11375 0.495 1.11375 0.495 2.25 1 C5.13883312 2.22782871 5.13883312 2.22782871 9 2 C9.66 1.67 10.32 1.34 11 1 C10.67 2.32 10.34 3.64 10 5 C8.375 5.8125 8.375 5.8125 6 6 C3.70232365 4.54854104 1.98596134 2.89569037 0 1 C0 0.67 0 0.34 0 0 Z " fill="#9AA6B8" transform="translate(191,199)"/>
<path d="M0 0 C8.6309795 5.96583144 8.6309795 5.96583144 11 11 C7.84164893 9.60249952 5.67727175 7.94801766 3.25 5.5 C2.63640625 4.8915625 2.0228125 4.283125 1.390625 3.65625 C0 2 0 2 0 0 Z " fill="#ABBCC8" transform="translate(187,169)"/>
<path d="M0 0 C0.33 0.66 0.66 1.32 1 2 C1.66 2.33 2.32 2.66 3 3 C2.67 4.32 2.34 5.64 2 7 C-1 6 -1 6 -2.1875 3.9375 C-2.5896875 2.9784375 -2.5896875 2.9784375 -3 2 C-2.01 1.34 -1.02 0.68 0 0 Z " fill="#EDF6F9" transform="translate(49,210)"/>
<path d="M0 0 C0.66 0 1.32 0 2 0 C2.268125 0.763125 2.53625 1.52625 2.8125 2.3125 C3.79559745 5.01789666 3.79559745 5.01789666 5.6875 6.5625 C6.120625 7.036875 6.55375 7.51125 7 8 C6.58203125 10.08984375 6.58203125 10.08984375 6 12 C4.99466333 10.37829621 3.99588093 8.75252763 3 7.125 C2.443125 6.22007812 1.88625 5.31515625 1.3125 4.3828125 C0 2 0 2 0 0 Z " fill="#2AA3E1" transform="translate(230,149)"/>
<path d="M0 0 C0.66 0.33 1.32 0.66 2 1 C1.23832543 2.46313772 0.46529293 3.92036661 -0.3125 5.375 C-0.95638672 6.59316406 -0.95638672 6.59316406 -1.61328125 7.8359375 C-3 10 -3 10 -6 12 C-4.43358249 7.69235185 -2.31663844 3.93828536 0 0 Z " fill="#A1B1C3" transform="translate(351,111)"/>
<path d="M0 0 C0.66 0.33 1.32 0.66 2 1 C1.16855469 1.72316406 1.16855469 1.72316406 0.3203125 2.4609375 C-0.40414063 3.09257812 -1.12859375 3.72421875 -1.875 4.375 C-2.59429688 5.00148437 -3.31359375 5.62796875 -4.0546875 6.2734375 C-5.4076598 7.47426834 -6.7208345 8.7208345 -8 10 C-7.44449305 6.40094092 -6.25112752 5.00090201 -3.4375 2.75 C-2.79683594 2.22921875 -2.15617188 1.7084375 -1.49609375 1.171875 C-1.00238281 0.78515625 -0.50867188 0.3984375 0 0 Z " fill="#89929F" transform="translate(18,166)"/>
<path d="M0 0 C2 1 2 1 2.8515625 3.06640625 C3.10679687 3.89011719 3.36203125 4.71382812 3.625 5.5625 C3.88539063 6.38878906 4.14578125 7.21507812 4.4140625 8.06640625 C4.60742188 8.70449219 4.80078125 9.34257812 5 10 C4.01 9.67 3.02 9.34 2 9 C0.8125 6.4375 0.8125 6.4375 0 4 C-0.66 4 -1.32 4 -2 4 C-1.34 2.68 -0.68 1.36 0 0 Z " fill="#DCF9FE" transform="translate(227,145)"/>
<path d="M0 0 C1.32 0.66 2.64 1.32 4 2 C2.68 4.31 1.36 6.62 0 9 C-1.10844919 5.67465243 -0.84454356 3.37817425 0 0 Z " fill="#EDF7FB" transform="translate(376,100)"/>
<path d="M0 0 C0.99 0.33 1.98 0.66 3 1 C3 3.31 3 5.62 3 8 C2.01 7.01 1.02 6.02 0 5 C-0.66 5.66 -1.32 6.32 -2 7 C-2 3.89448334 -1.4606285 2.64738916 0 0 Z " fill="#C4D0DF" transform="translate(83,159)"/>
<path d="M0 0 C0.33 0.66 0.66 1.32 1 2 C0.06421005 4.35981813 -0.93347808 6.69631264 -2 9 C-2.99 8.67 -3.98 8.34 -5 8 C-5 7.34 -5 6.68 -5 6 C-4.34 6 -3.68 6 -3 6 C-2.690625 5.195625 -2.38125 4.39125 -2.0625 3.5625 C-1 1 -1 1 0 0 Z " fill="#BAC5D0" transform="translate(136,212)"/>
<path d="M0 0 C1.39195915 4.17587745 -0.17676781 6.13474776 -2 10 C-2.66 10 -3.32 10 -4 10 C-3.43454163 6.04179141 -2.19097652 3.3340947 0 0 Z " fill="#8490A4" transform="translate(169,185)"/>
<path d="M0 0 C3 1 3 1 4.25 2.8125 C5.11637742 5.33943414 4.88492145 6.52221994 4 9 C0 2.25 0 2.25 0 0 Z " fill="#718693" transform="translate(100,152)"/>
<path d="M0 0 C1 3 1 3 0.22265625 5.04296875 C-0.16019531 5.75066406 -0.54304688 6.45835937 -0.9375 7.1875 C-1.31777344 7.90292969 -1.69804688 8.61835938 -2.08984375 9.35546875 C-2.54037109 10.16951172 -2.54037109 10.16951172 -3 11 C-3.66 10.67 -4.32 10.34 -5 10 C-3.66511872 6.40608886 -2.03977277 3.24509304 0 0 Z " fill="#9FACC5" transform="translate(74,176)"/>
<path d="M0 0 C0.66 0.99 1.32 1.98 2 3 C0.02 5.64 -1.96 8.28 -4 11 C-4 7.80389448 -3.45328458 6.58282374 -2 3.8125 C-1.62875 3.09707031 -1.2575 2.38164062 -0.875 1.64453125 C-0.441875 0.83048828 -0.441875 0.83048828 0 0 Z " fill="#E9F1F7" transform="translate(72,145)"/>
<path d="M0 0 C1.0625 1.875 1.0625 1.875 2 4 C1.67 4.66 1.34 5.32 1 6 C0.01 6 -0.98 6 -2 6 C-2.33 6.99 -2.66 7.98 -3 9 C-3.33 8.34 -3.66 7.68 -4 7 C-3.22265625 5.2734375 -3.22265625 5.2734375 -2.0625 3.375 C-1.381875 2.26125 -0.70125 1.1475 0 0 Z " fill="#EBF4FB" transform="translate(85,122)"/>
<path d="M0 0 C1.32 0.66 2.64 1.32 4 2 C3.6875 3.875 3.6875 3.875 3 6 C2.01 6.66 1.02 7.32 0 8 C0.20625 7.21625 0.4125 6.4325 0.625 5.625 C0.74875 4.75875 0.8725 3.8925 1 3 C0.34 2.34 -0.32 1.68 -1 1 C-0.67 0.67 -0.34 0.34 0 0 Z " fill="#939CAF" transform="translate(378,99)"/>
<path d="M0 0 C1.70884005 1.62339805 3.37446717 3.29319053 5 5 C5 5.66 5 6.32 5 7 C4.01 7.33 3.02 7.66 2 8 C0.74335022 5.09399739 0 3.20395416 0 0 Z " fill="#E5EDF5" transform="translate(127,211)"/>
<path d="M0 0 C2.475 0.99 2.475 0.99 5 2 C5.66 1.34 6.32 0.68 7 0 C7.33 1.32 7.66 2.64 8 4 C4 4 4 4 1.75 2 C1.1725 1.34 0.595 0.68 0 0 Z " fill="#ECF3F8" transform="translate(192,198)"/>
<path d="M0 0 C0.66 0.66 1.32 1.32 2 2 C1.01 4.31 0.02 6.62 -1 9 C-1.66 9 -2.32 9 -3 9 C-2.01 6.03 -1.02 3.06 0 0 Z " fill="#99A6B5" transform="translate(158,165)"/>
<path d="M0 0 C1.9375 0.3125 1.9375 0.3125 4 1 C4.33 1.99 4.66 2.98 5 4 C2.03 3.505 2.03 3.505 -1 3 C-0.67 2.01 -0.34 1.02 0 0 Z " fill="#1BA9FA" transform="translate(252,170)"/>
<path d="M0 0 C2.31 0.33 4.62 0.66 7 1 C7.33 1.99 7.66 2.98 8 4 C4.31245243 3.50168276 2.39509338 2.89932357 0 0 Z " fill="#3EB3EB" transform="translate(243,166)"/>
</svg>
